<svg aria-roledescription="er" viewBox="0 0 628.6641845703125 598" style="max-width: 628.664px; background-color: white;" xmlns:xlink="http://www.w3.org/1999/xlink" xmlns="http://www.w3.org/2000/svg" width="100%" id="mermaid-0"><style>#mermaid-0{font-family:"trebuchet ms",verdana,arial,sans-serif;font-size:16px;fill:#000000;}#mermaid-0 .error-icon{fill:#552222;}#mermaid-0 .error-text{fill:#552222;stroke:#552222;}#mermaid-0 .edge-thickness-normal{stroke-width:2px;}#mermaid-0 .edge-thickness-thick{stroke-width:3.5px;}#mermaid-0 .edge-pattern-solid{stroke-dasharray:0;}#mermaid-0 .edge-pattern-dashed{stroke-dasharray:3;}#mermaid-0 .edge-pattern-dotted{stroke-dasharray:2;}#mermaid-0 .marker{fill:#000000;stroke:#000000;}#mermaid-0 .marker.cross{stroke:#000000;}#mermaid-0 svg{font-family:"trebuchet ms",verdana,arial,sans-serif;font-size:16px;}#mermaid-0 .entityBox{fill:#cde498;stroke:#13540c;}#mermaid-0 .attributeBoxOdd{fill:#ffffff;stroke:#13540c;}#mermaid-0 .attributeBoxEven{fill:#f2f2f2;stroke:#13540c;}#mermaid-0 .relationshipLabelBox{fill:hsl(78.1578947368, 58.4615384615%, 84.5098039216%);opacity:0.7;background-color:hsl(78.1578947368, 58.4615384615%, 84.5098039216%);}#mermaid-0 .relationshipLabelBox rect{opacity:0.5;}#mermaid-0 .relationshipLine{stroke:#000000;}#mermaid-0 .entityTitleText{text-anchor:middle;font-size:18px;fill:#000000;}#mermaid-0 :root{--mermaid-font-family:"trebuchet ms",verdana,arial,sans-serif;}</style><g/><defs><marker orient="auto" markerHeight="18" markerWidth="18" refY="9" refX="0" id="ONLY_ONE_START"><path d="M9,0 L9,18 M15,0 L15,18" fill="none" stroke="gray"/></marker></defs><defs><marker orient="auto" markerHeight="18" markerWidth="18" refY="9" refX="18" id="ONLY_ONE_END"><path d="M3,0 L3,18 M9,0 L9,18" fill="none" stroke="gray"/></marker></defs><defs><marker orient="auto" markerHeight="18" markerWidth="30" refY="9" refX="0" id="ZERO_OR_ONE_START"><circle r="6" cy="9" cx="21" fill="white" stroke="gray"/><path d="M9,0 L9,18" fill="none" stroke="gray"/></marker></defs><defs><marker orient="auto" markerHeight="18" markerWidth="30" refY="9" refX="30" id="ZERO_OR_ONE_END"><circle r="6" cy="9" cx="9" fill="white" stroke="gray"/><path d="M21,0 L21,18" fill="none" stroke="gray"/></marker></defs><defs><marker orient="auto" markerHeight="36" markerWidth="45" refY="18" refX="18" id="ONE_OR_MORE_START"><path d="M0,18 Q 18,0 36,18 Q 18,36 0,18 M42,9 L42,27" fill="none" stroke="gray"/></marker></defs><defs><marker orient="auto" markerHeight="36" markerWidth="45" refY="18" refX="27" id="ONE_OR_MORE_END"><path d="M3,9 L3,27 M9,18 Q27,0 45,18 Q27,36 9,18" fill="none" stroke="gray"/></marker></defs><defs><marker orient="auto" markerHeight="36" markerWidth="57" refY="18" refX="18" id="ZERO_OR_MORE_START"><circle r="6" cy="18" cx="48" fill="white" stroke="gray"/><path d="M0,18 Q18,0 36,18 Q18,36 0,18" fill="none" stroke="gray"/></marker></defs><defs><marker orient="auto" markerHeight="36" markerWidth="57" refY="18" refX="39" id="ZERO_OR_MORE_END"><circle r="6" cy="18" cx="9" fill="white" stroke="gray"/><path d="M21,18 Q39,0 57,18 Q39,36 21,18" fill="none" stroke="gray"/></marker></defs><path style="stroke: gray; fill: none;" marker-start="url(#ZERO_OR_MORE_START)" marker-end="url(#ONLY_ONE_END)" d="M97.81886291503906,366L97.81886291503906,374.3333333333333C97.81886291503906,382.6666666666667,97.81886291503906,399.3333333333333,97.81886291503906,419.6666666666667C97.81886291503906,440,97.81886291503906,464,97.81886291503906,476L97.81886291503906,488" class="er relationshipLine"/><path style="stroke: gray; fill: none;" marker-start="url(#ZERO_OR_MORE_START)" marker-end="url(#ONLY_ONE_END)" d="M342.15093994140625,355L342.15093994140625,365.1666666666667C342.15093994140625,375.3333333333333,342.15093994140625,395.6666666666667,342.15093994140625,414.1666666666667C342.15093994140625,432.6666666666667,342.15093994140625,449.3333333333333,342.15093994140625,457.6666666666667L342.15093994140625,466" class="er relationshipLine"/><path style="stroke: gray; fill: none;" marker-start="url(#ZERO_OR_MORE_START)" marker-end="url(#ZERO_OR_ONE_END)" d="M415.42271423339844,111.87221272766098L439.2962875366211,123.56017727305083C463.16986083984375,135.24814181844064,510.91700744628906,158.62407090922034,534.7905807495117,184.1453687879435C558.6641540527344,209.66666666666666,558.6641540527344,237.33333333333334,558.6641540527344,251.16666666666666L558.6641540527344,265" class="er relationshipLine"/><path style="stroke: gray; fill: none;" marker-start="url(#ZERO_OR_MORE_START)" marker-end="url(#ONLY_ONE_END)" d="M268.87916564941406,107.78791818690681L240.3691151936849,120.156598489089C211.85906473795572,132.5252787912712,154.8389638264974,157.2626393956356,126.32891337076823,177.96465303115113C97.81886291503906,198.66666666666666,97.81886291503906,215.33333333333334,97.81886291503906,223.66666666666666L97.81886291503906,232" class="er relationshipLine"/><path style="stroke: gray; fill: none;" marker-start="url(#ZERO_OR_MORE_START)" marker-end="url(#ONLY_ONE_END)" d="M342.15093994140625,132L342.15093994140625,140.33333333333334C342.15093994140625,148.66666666666666,342.15093994140625,165.33333333333334,342.15093994140625,183.83333333333334C342.15093994140625,202.33333333333334,342.15093994140625,222.66666666666666,342.15093994140625,232.83333333333334L342.15093994140625,243" class="er relationshipLine"/><g transform="translate(20,232 )" id="entity-Equipment-04f07d45-b770-484f-bf6a-7edaad389939"><rect height="134" width="155.63772583007812" y="0" x="0" class="er entityBox"/><text style="dominant-baseline: middle; text-anchor: middle; font-size: 12px;" transform="translate(77.81886291503906,12)" y="0" x="0" id="text-entity-Equipment-04f07d45-b770-484f-bf6a-7edaad389939" class="er entityLabel">Equipment</text><rect height="22" width="46.649749755859375" y="24" x="0" class="er attributeBoxOdd"/><text style="dominant-baseline: middle; font-size: 10.2px;" transform="translate(5,35)" y="0" x="0" id="text-entity-Equipment-04f07d45-b770-484f-bf6a-7edaad389939-attr-1-type" class="er entityLabel">String</text><rect height="22" width="86.30029296875" y="24" x="46.649749755859375" class="er attributeBoxOdd"/><text style="dominant-baseline: middle; font-size: 10.2px;" transform="translate(51.649749755859375,35)" y="0" x="0" id="text-entity-Equipment-04f07d45-b770-484f-bf6a-7edaad389939-attr-1-name" class="er entityLabel">id</text><rect height="22" width="22.68768310546875" y="24" x="132.95004272460938" class="er attributeBoxOdd"/><text style="dominant-baseline: middle; font-size: 10.2px;" transform="translate(137.95004272460938,35)" y="0" x="0" id="text-entity-Equipment-04f07d45-b770-484f-bf6a-7edaad389939-attr-1-key" class="er entityLabel">PK</text><rect height="22" width="46.649749755859375" y="46" x="0" class="er attributeBoxEven"/><text style="dominant-baseline: middle; font-size: 10.2px;" transform="translate(5,57)" y="0" x="0" id="text-entity-Equipment-04f07d45-b770-484f-bf6a-7edaad389939-attr-2-type" class="er entityLabel">String</text><rect height="22" width="86.30029296875" y="46" x="46.649749755859375" class="er attributeBoxEven"/><text style="dominant-baseline: middle; font-size: 10.2px;" transform="translate(51.649749755859375,57)" y="0" x="0" id="text-entity-Equipment-04f07d45-b770-484f-bf6a-7edaad389939-attr-2-name" class="er entityLabel">name</text><rect height="22" width="22.68768310546875" y="46" x="132.95004272460938" class="er attributeBoxEven"/><text style="dominant-baseline: middle; font-size: 10.2px;" transform="translate(137.95004272460938,57)" y="0" x="0" id="text-entity-Equipment-04f07d45-b770-484f-bf6a-7edaad389939-attr-2-key" class="er entityLabel"/><rect height="22" width="46.649749755859375" y="68" x="0" class="er attributeBoxOdd"/><text style="dominant-baseline: middle; font-size: 10.2px;" transform="translate(5,79)" y="0" x="0" id="text-entity-Equipment-04f07d45-b770-484f-bf6a-7edaad389939-attr-3-type" class="er entityLabel">Decimal</text><rect height="22" width="86.30029296875" y="68" x="46.649749755859375" class="er attributeBoxOdd"/><text style="dominant-baseline: middle; font-size: 10.2px;" transform="translate(51.649749755859375,79)" y="0" x="0" id="text-entity-Equipment-04f07d45-b770-484f-bf6a-7edaad389939-attr-3-name" class="er entityLabel">power</text><rect height="22" width="22.68768310546875" y="68" x="132.95004272460938" class="er attributeBoxOdd"/><text style="dominant-baseline: middle; font-size: 10.2px;" transform="translate(137.95004272460938,79)" y="0" x="0" id="text-entity-Equipment-04f07d45-b770-484f-bf6a-7edaad389939-attr-3-key" class="er entityLabel"/><rect height="22" width="46.649749755859375" y="90" x="0" class="er attributeBoxEven"/><text style="dominant-baseline: middle; font-size: 10.2px;" transform="translate(5,101)" y="0" x="0" id="text-entity-Equipment-04f07d45-b770-484f-bf6a-7edaad389939-attr-4-type" class="er entityLabel">Boolean</text><rect height="22" width="86.30029296875" y="90" x="46.649749755859375" class="er attributeBoxEven"/><text style="dominant-baseline: middle; font-size: 10.2px;" transform="translate(51.649749755859375,101)" y="0" x="0" id="text-entity-Equipment-04f07d45-b770-484f-bf6a-7edaad389939-attr-4-name" class="er entityLabel">isResistive</text><rect height="22" width="22.68768310546875" y="90" x="132.95004272460938" class="er attributeBoxEven"/><text style="dominant-baseline: middle; font-size: 10.2px;" transform="translate(137.95004272460938,101)" y="0" x="0" id="text-entity-Equipment-04f07d45-b770-484f-bf6a-7edaad389939-attr-4-key" class="er entityLabel"/><rect height="22" width="46.649749755859375" y="112" x="0" class="er attributeBoxOdd"/><text style="dominant-baseline: middle; font-size: 10.2px;" transform="translate(5,123)" y="0" x="0" id="text-entity-Equipment-04f07d45-b770-484f-bf6a-7edaad389939-attr-5-type" class="er entityLabel">Int</text><rect height="22" width="86.30029296875" y="112" x="46.649749755859375" class="er attributeBoxOdd"/><text style="dominant-baseline: middle; font-size: 10.2px;" transform="translate(51.649749755859375,123)" y="0" x="0" id="text-entity-Equipment-04f07d45-b770-484f-bf6a-7edaad389939-attr-5-name" class="er entityLabel">numberOfPhases</text><rect height="22" width="22.68768310546875" y="112" x="132.95004272460938" class="er attributeBoxOdd"/><text style="dominant-baseline: middle; font-size: 10.2px;" transform="translate(137.95004272460938,123)" y="0" x="0" id="text-entity-Equipment-04f07d45-b770-484f-bf6a-7edaad389939-attr-5-key" class="er entityLabel"/></g><g transform="translate(41.42628479003906,488 )" id="entity-EquipmentType-601894e5-45f7-4648-88d3-7b594855263c"><rect height="68" width="112.78515625" y="0" x="0" class="er entityBox"/><text style="dominant-baseline: middle; text-anchor: middle; font-size: 12px;" transform="translate(56.392578125,12)" y="0" x="0" id="text-entity-EquipmentType-601894e5-45f7-4648-88d3-7b594855263c" class="er entityLabel">EquipmentType</text><rect height="22" width="43.16355895996094" y="24" x="0" class="er attributeBoxOdd"/><text style="dominant-baseline: middle; font-size: 10.2px;" transform="translate(5,35)" y="0" x="0" id="text-entity-EquipmentType-601894e5-45f7-4648-88d3-7b594855263c-attr-1-type" class="er entityLabel">String</text><rect height="22" width="41.166412353515625" y="24" x="43.16355895996094" class="er attributeBoxOdd"/><text style="dominant-baseline: middle; font-size: 10.2px;" transform="translate(48.16355895996094,35)" y="0" x="0" id="text-entity-EquipmentType-601894e5-45f7-4648-88d3-7b594855263c-attr-1-name" class="er entityLabel">id</text><rect height="22" width="28.455184936523438" y="24" x="84.32997131347656" class="er attributeBoxOdd"/><text style="dominant-baseline: middle; font-size: 10.2px;" transform="translate(89.32997131347656,35)" y="0" x="0" id="text-entity-EquipmentType-601894e5-45f7-4648-88d3-7b594855263c-attr-1-key" class="er entityLabel">PK</text><rect height="22" width="43.16355895996094" y="46" x="0" class="er attributeBoxEven"/><text style="dominant-baseline: middle; font-size: 10.2px;" transform="translate(5,57)" y="0" x="0" id="text-entity-EquipmentType-601894e5-45f7-4648-88d3-7b594855263c-attr-2-type" class="er entityLabel">String</text><rect height="22" width="41.166412353515625" y="46" x="43.16355895996094" class="er attributeBoxEven"/><text style="dominant-baseline: middle; font-size: 10.2px;" transform="translate(48.16355895996094,57)" y="0" x="0" id="text-entity-EquipmentType-601894e5-45f7-4648-88d3-7b594855263c-attr-2-name" class="er entityLabel">name</text><rect height="22" width="28.455184936523438" y="46" x="84.32997131347656" class="er attributeBoxEven"/><text style="dominant-baseline: middle; font-size: 10.2px;" transform="translate(89.32997131347656,57)" y="0" x="0" id="text-entity-EquipmentType-601894e5-45f7-4648-88d3-7b594855263c-attr-2-key" class="er entityLabel"/></g><g transform="translate(275.6377258300781,466 )" id="entity-User-2dc6f05c-d421-484b-9d5f-dd0690139143"><rect height="112" width="133.02642822265625" y="0" x="0" class="er entityBox"/><text style="dominant-baseline: middle; text-anchor: middle; font-size: 12px;" transform="translate(66.51321411132812,12)" y="0" x="0" id="text-entity-User-2dc6f05c-d421-484b-9d5f-dd0690139143" class="er entityLabel">User</text><rect height="22" width="54.095550537109375" y="24" x="0" class="er attributeBoxOdd"/><text style="dominant-baseline: middle; font-size: 10.2px;" transform="translate(5,35)" y="0" x="0" id="text-entity-User-2dc6f05c-d421-484b-9d5f-dd0690139143-attr-1-type" class="er entityLabel">String</text><rect height="22" width="56.243194580078125" y="24" x="54.095550537109375" class="er attributeBoxOdd"/><text style="dominant-baseline: middle; font-size: 10.2px;" transform="translate(59.095550537109375,35)" y="0" x="0" id="text-entity-User-2dc6f05c-d421-484b-9d5f-dd0690139143-attr-1-name" class="er entityLabel">id</text><rect height="22" width="22.68768310546875" y="24" x="110.3387451171875" class="er attributeBoxOdd"/><text style="dominant-baseline: middle; font-size: 10.2px;" transform="translate(115.3387451171875,35)" y="0" x="0" id="text-entity-User-2dc6f05c-d421-484b-9d5f-dd0690139143-attr-1-key" class="er entityLabel">PK</text><rect height="22" width="54.095550537109375" y="46" x="0" class="er attributeBoxEven"/><text style="dominant-baseline: middle; font-size: 10.2px;" transform="translate(5,57)" y="0" x="0" id="text-entity-User-2dc6f05c-d421-484b-9d5f-dd0690139143-attr-2-type" class="er entityLabel">String</text><rect height="22" width="56.243194580078125" y="46" x="54.095550537109375" class="er attributeBoxEven"/><text style="dominant-baseline: middle; font-size: 10.2px;" transform="translate(59.095550537109375,57)" y="0" x="0" id="text-entity-User-2dc6f05c-d421-484b-9d5f-dd0690139143-attr-2-name" class="er entityLabel">name</text><rect height="22" width="22.68768310546875" y="46" x="110.3387451171875" class="er attributeBoxEven"/><text style="dominant-baseline: middle; font-size: 10.2px;" transform="translate(115.3387451171875,57)" y="0" x="0" id="text-entity-User-2dc6f05c-d421-484b-9d5f-dd0690139143-attr-2-key" class="er entityLabel"/><rect height="22" width="54.095550537109375" y="68" x="0" class="er attributeBoxOdd"/><text style="dominant-baseline: middle; font-size: 10.2px;" transform="translate(5,79)" y="0" x="0" id="text-entity-User-2dc6f05c-d421-484b-9d5f-dd0690139143-attr-3-type" class="er entityLabel">String</text><rect height="22" width="56.243194580078125" y="68" x="54.095550537109375" class="er attributeBoxOdd"/><text style="dominant-baseline: middle; font-size: 10.2px;" transform="translate(59.095550537109375,79)" y="0" x="0" id="text-entity-User-2dc6f05c-d421-484b-9d5f-dd0690139143-attr-3-name" class="er entityLabel">email</text><rect height="22" width="22.68768310546875" y="68" x="110.3387451171875" class="er attributeBoxOdd"/><text style="dominant-baseline: middle; font-size: 10.2px;" transform="translate(115.3387451171875,79)" y="0" x="0" id="text-entity-User-2dc6f05c-d421-484b-9d5f-dd0690139143-attr-3-key" class="er entityLabel"/><rect height="22" width="54.095550537109375" y="90" x="0" class="er attributeBoxEven"/><text style="dominant-baseline: middle; font-size: 10.2px;" transform="translate(5,101)" y="0" x="0" id="text-entity-User-2dc6f05c-d421-484b-9d5f-dd0690139143-attr-4-type" class="er entityLabel">DateTime</text><rect height="22" width="56.243194580078125" y="90" x="54.095550537109375" class="er attributeBoxEven"/><text style="dominant-baseline: middle; font-size: 10.2px;" transform="translate(59.095550537109375,101)" y="0" x="0" id="text-entity-User-2dc6f05c-d421-484b-9d5f-dd0690139143-attr-4-name" class="er entityLabel">createdAt</text><rect height="22" width="22.68768310546875" y="90" x="110.3387451171875" class="er attributeBoxEven"/><text style="dominant-baseline: middle; font-size: 10.2px;" transform="translate(115.3387451171875,101)" y="0" x="0" id="text-entity-User-2dc6f05c-d421-484b-9d5f-dd0690139143-attr-4-key" class="er entityLabel"/></g><g transform="translate(275.6377258300781,243 )" id="entity-Project-66f8ca4a-10cb-4bf3-9115-05de2c45915e"><rect height="112" width="133.02642822265625" y="0" x="0" class="er entityBox"/><text style="dominant-baseline: middle; text-anchor: middle; font-size: 12px;" transform="translate(66.51321411132812,12)" y="0" x="0" id="text-entity-Project-66f8ca4a-10cb-4bf3-9115-05de2c45915e" class="er entityLabel">Project</text><rect height="22" width="54.095550537109375" y="24" x="0" class="er attributeBoxOdd"/><text style="dominant-baseline: middle; font-size: 10.2px;" transform="translate(5,35)" y="0" x="0" id="text-entity-Project-66f8ca4a-10cb-4bf3-9115-05de2c45915e-attr-1-type" class="er entityLabel">String</text><rect height="22" width="56.243194580078125" y="24" x="54.095550537109375" class="er attributeBoxOdd"/><text style="dominant-baseline: middle; font-size: 10.2px;" transform="translate(59.095550537109375,35)" y="0" x="0" id="text-entity-Project-66f8ca4a-10cb-4bf3-9115-05de2c45915e-attr-1-name" class="er entityLabel">id</text><rect height="22" width="22.68768310546875" y="24" x="110.3387451171875" class="er attributeBoxOdd"/><text style="dominant-baseline: middle; font-size: 10.2px;" transform="translate(115.3387451171875,35)" y="0" x="0" id="text-entity-Project-66f8ca4a-10cb-4bf3-9115-05de2c45915e-attr-1-key" class="er entityLabel">PK</text><rect height="22" width="54.095550537109375" y="46" x="0" class="er attributeBoxEven"/><text style="dominant-baseline: middle; font-size: 10.2px;" transform="translate(5,57)" y="0" x="0" id="text-entity-Project-66f8ca4a-10cb-4bf3-9115-05de2c45915e-attr-2-type" class="er entityLabel">String</text><rect height="22" width="56.243194580078125" y="46" x="54.095550537109375" class="er attributeBoxEven"/><text style="dominant-baseline: middle; font-size: 10.2px;" transform="translate(59.095550537109375,57)" y="0" x="0" id="text-entity-Project-66f8ca4a-10cb-4bf3-9115-05de2c45915e-attr-2-name" class="er entityLabel">name</text><rect height="22" width="22.68768310546875" y="46" x="110.3387451171875" class="er attributeBoxEven"/><text style="dominant-baseline: middle; font-size: 10.2px;" transform="translate(115.3387451171875,57)" y="0" x="0" id="text-entity-Project-66f8ca4a-10cb-4bf3-9115-05de2c45915e-attr-2-key" class="er entityLabel"/><rect height="22" width="54.095550537109375" y="68" x="0" class="er attributeBoxOdd"/><text style="dominant-baseline: middle; font-size: 10.2px;" transform="translate(5,79)" y="0" x="0" id="text-entity-Project-66f8ca4a-10cb-4bf3-9115-05de2c45915e-attr-3-type" class="er entityLabel">DateTime</text><rect height="22" width="56.243194580078125" y="68" x="54.095550537109375" class="er attributeBoxOdd"/><text style="dominant-baseline: middle; font-size: 10.2px;" transform="translate(59.095550537109375,79)" y="0" x="0" id="text-entity-Project-66f8ca4a-10cb-4bf3-9115-05de2c45915e-attr-3-name" class="er entityLabel">createdAt</text><rect height="22" width="22.68768310546875" y="68" x="110.3387451171875" class="er attributeBoxOdd"/><text style="dominant-baseline: middle; font-size: 10.2px;" transform="translate(115.3387451171875,79)" y="0" x="0" id="text-entity-Project-66f8ca4a-10cb-4bf3-9115-05de2c45915e-attr-3-key" class="er entityLabel"/><rect height="22" width="54.095550537109375" y="90" x="0" class="er attributeBoxEven"/><text style="dominant-baseline: middle; font-size: 10.2px;" transform="translate(5,101)" y="0" x="0" id="text-entity-Project-66f8ca4a-10cb-4bf3-9115-05de2c45915e-attr-4-type" class="er entityLabel">DateTime</text><rect height="22" width="56.243194580078125" y="90" x="54.095550537109375" class="er attributeBoxEven"/><text style="dominant-baseline: middle; font-size: 10.2px;" transform="translate(59.095550537109375,101)" y="0" x="0" id="text-entity-Project-66f8ca4a-10cb-4bf3-9115-05de2c45915e-attr-4-name" class="er entityLabel">updtedAt</text><rect height="22" width="22.68768310546875" y="90" x="110.3387451171875" class="er attributeBoxEven"/><text style="dominant-baseline: middle; font-size: 10.2px;" transform="translate(115.3387451171875,101)" y="0" x="0" id="text-entity-Project-66f8ca4a-10cb-4bf3-9115-05de2c45915e-attr-4-key" class="er entityLabel"/></g><g transform="translate(268.87916564941406,20 )" id="entity-ProjectItem-fd7f48ad-d4ca-4eb2-b3f8-571b0506ad1a"><rect height="112" width="146.54354858398438" y="0" x="0" class="er entityBox"/><text style="dominant-baseline: middle; text-anchor: middle; font-size: 12px;" transform="translate(73.27177429199219,12)" y="0" x="0" id="text-entity-ProjectItem-fd7f48ad-d4ca-4eb2-b3f8-571b0506ad1a" class="er entityLabel">ProjectItem</text><rect height="22" width="46.625" y="24" x="0" class="er attributeBoxOdd"/><text style="dominant-baseline: middle; font-size: 10.2px;" transform="translate(5,35)" y="0" x="0" id="text-entity-ProjectItem-fd7f48ad-d4ca-4eb2-b3f8-571b0506ad1a-attr-1-type" class="er entityLabel">String</text><rect height="22" width="77.23086547851562" y="24" x="46.625" class="er attributeBoxOdd"/><text style="dominant-baseline: middle; font-size: 10.2px;" transform="translate(51.625,35)" y="0" x="0" id="text-entity-ProjectItem-fd7f48ad-d4ca-4eb2-b3f8-571b0506ad1a-attr-1-name" class="er entityLabel">id</text><rect height="22" width="22.68768310546875" y="24" x="123.85586547851562" class="er attributeBoxOdd"/><text style="dominant-baseline: middle; font-size: 10.2px;" transform="translate(128.85586547851562,35)" y="0" x="0" id="text-entity-ProjectItem-fd7f48ad-d4ca-4eb2-b3f8-571b0506ad1a-attr-1-key" class="er entityLabel">PK</text><rect height="22" width="46.625" y="46" x="0" class="er attributeBoxEven"/><text style="dominant-baseline: middle; font-size: 10.2px;" transform="translate(5,57)" y="0" x="0" id="text-entity-ProjectItem-fd7f48ad-d4ca-4eb2-b3f8-571b0506ad1a-attr-2-type" class="er entityLabel">Decimal</text><rect height="22" width="77.23086547851562" y="46" x="46.625" class="er attributeBoxEven"/><text style="dominant-baseline: middle; font-size: 10.2px;" transform="translate(51.625,57)" y="0" x="0" id="text-entity-ProjectItem-fd7f48ad-d4ca-4eb2-b3f8-571b0506ad1a-attr-2-name" class="er entityLabel">power</text><rect height="22" width="22.68768310546875" y="46" x="123.85586547851562" class="er attributeBoxEven"/><text style="dominant-baseline: middle; font-size: 10.2px;" transform="translate(128.85586547851562,57)" y="0" x="0" id="text-entity-ProjectItem-fd7f48ad-d4ca-4eb2-b3f8-571b0506ad1a-attr-2-key" class="er entityLabel"/><rect height="22" width="46.625" y="68" x="0" class="er attributeBoxOdd"/><text style="dominant-baseline: middle; font-size: 10.2px;" transform="translate(5,79)" y="0" x="0" id="text-entity-ProjectItem-fd7f48ad-d4ca-4eb2-b3f8-571b0506ad1a-attr-3-type" class="er entityLabel">Int</text><rect height="22" width="77.23086547851562" y="68" x="46.625" class="er attributeBoxOdd"/><text style="dominant-baseline: middle; font-size: 10.2px;" transform="translate(51.625,79)" y="0" x="0" id="text-entity-ProjectItem-fd7f48ad-d4ca-4eb2-b3f8-571b0506ad1a-attr-3-name" class="er entityLabel">amount</text><rect height="22" width="22.68768310546875" y="68" x="123.85586547851562" class="er attributeBoxOdd"/><text style="dominant-baseline: middle; font-size: 10.2px;" transform="translate(128.85586547851562,79)" y="0" x="0" id="text-entity-ProjectItem-fd7f48ad-d4ca-4eb2-b3f8-571b0506ad1a-attr-3-key" class="er entityLabel"/><rect height="22" width="46.625" y="90" x="0" class="er attributeBoxEven"/><text style="dominant-baseline: middle; font-size: 10.2px;" transform="translate(5,101)" y="0" x="0" id="text-entity-ProjectItem-fd7f48ad-d4ca-4eb2-b3f8-571b0506ad1a-attr-4-type" class="er entityLabel">Int</text><rect height="22" width="77.23086547851562" y="90" x="46.625" class="er attributeBoxEven"/><text style="dominant-baseline: middle; font-size: 10.2px;" transform="translate(51.625,101)" y="0" x="0" id="text-entity-ProjectItem-fd7f48ad-d4ca-4eb2-b3f8-571b0506ad1a-attr-4-name" class="er entityLabel">phasesNumber</text><rect height="22" width="22.68768310546875" y="90" x="123.85586547851562" class="er attributeBoxEven"/><text style="dominant-baseline: middle; font-size: 10.2px;" transform="translate(128.85586547851562,101)" y="0" x="0" id="text-entity-ProjectItem-fd7f48ad-d4ca-4eb2-b3f8-571b0506ad1a-attr-4-key" class="er entityLabel"/></g><g transform="translate(508.6641540527344,265 )" id="entity-Room-d6b5a300-44be-4663-9dff-e81ad77500bb"><rect height="68" width="100" y="0" x="0" class="er entityBox"/><text style="dominant-baseline: middle; text-anchor: middle; font-size: 12px;" transform="translate(50,12)" y="0" x="0" id="text-entity-Room-d6b5a300-44be-4663-9dff-e81ad77500bb" class="er entityLabel">Room</text><rect height="22" width="38.90184020996094" y="24" x="0" class="er attributeBoxOdd"/><text style="dominant-baseline: middle; font-size: 10.2px;" transform="translate(5,35)" y="0" x="0" id="text-entity-Room-d6b5a300-44be-4663-9dff-e81ad77500bb-attr-1-type" class="er entityLabel">String</text><rect height="22" width="36.904693603515625" y="24" x="38.90184020996094" class="er attributeBoxOdd"/><text style="dominant-baseline: middle; font-size: 10.2px;" transform="translate(43.90184020996094,35)" y="0" x="0" id="text-entity-Room-d6b5a300-44be-4663-9dff-e81ad77500bb-attr-1-name" class="er entityLabel">id</text><rect height="22" width="24.193466186523438" y="24" x="75.80653381347656" class="er attributeBoxOdd"/><text style="dominant-baseline: middle; font-size: 10.2px;" transform="translate(80.80653381347656,35)" y="0" x="0" id="text-entity-Room-d6b5a300-44be-4663-9dff-e81ad77500bb-attr-1-key" class="er entityLabel">PK</text><rect height="22" width="38.90184020996094" y="46" x="0" class="er attributeBoxEven"/><text style="dominant-baseline: middle; font-size: 10.2px;" transform="translate(5,57)" y="0" x="0" id="text-entity-Room-d6b5a300-44be-4663-9dff-e81ad77500bb-attr-2-type" class="er entityLabel">String</text><rect height="22" width="36.904693603515625" y="46" x="38.90184020996094" class="er attributeBoxEven"/><text style="dominant-baseline: middle; font-size: 10.2px;" transform="translate(43.90184020996094,57)" y="0" x="0" id="text-entity-Room-d6b5a300-44be-4663-9dff-e81ad77500bb-attr-2-name" class="er entityLabel">name</text><rect height="22" width="24.193466186523438" y="46" x="75.80653381347656" class="er attributeBoxEven"/><text style="dominant-baseline: middle; font-size: 10.2px;" transform="translate(80.80653381347656,57)" y="0" x="0" id="text-entity-Room-d6b5a300-44be-4663-9dff-e81ad77500bb-attr-2-key" class="er entityLabel"/></g><rect height="14" width="24.361328125" y="420" x="85.63819885253906" class="er relationshipLabelBox"/><text style="text-anchor: middle; dominant-baseline: middle; font-size: 12px;" y="427" x="97.81886291503906" id="rel1" class="er relationshipLabel">type</text><rect height="14" width="34.470703125" y="403.5" x="324.91558837890625" class="er relationshipLabelBox"/><text style="text-anchor: middle; dominant-baseline: middle; font-size: 12px;" y="410.5" x="342.15093994140625" id="rel2" class="er relationshipLabel">owner</text><rect height="14" width="27.54296875" y="159.69654846191406" x="500.939697265625" class="er relationshipLabelBox"/><text style="text-anchor: middle; dominant-baseline: middle; font-size: 12px;" y="166.69654846191406" x="514.711181640625" id="rel3" class="er relationshipLabel">room</text><rect height="14" width="57.95703125" y="147.02902221679688" x="138.0714569091797" class="er relationshipLabelBox"/><text style="text-anchor: middle; dominant-baseline: middle; font-size: 12px;" y="154.02902221679688" x="167.0499725341797" id="rel4" class="er relationshipLabel">equipment</text><rect height="14" width="39.67578125" y="180.5" x="322.31304931640625" class="er relationshipLabelBox"/><text style="text-anchor: middle; dominant-baseline: middle; font-size: 12px;" y="187.5" x="342.15093994140625" id="rel5" class="er relationshipLabel">project</text></svg>