<svg aria-roledescription="er" viewBox="0 0 399.60205078125 554" style="max-width: 399.602px; background-color: white;" xmlns:xlink="http://www.w3.org/1999/xlink" xmlns="http://www.w3.org/2000/svg" width="100%" id="mermaid-0"><style>#mermaid-0{font-family:"trebuchet ms",verdana,arial,sans-serif;font-size:16px;fill:#000000;}#mermaid-0 .error-icon{fill:#552222;}#mermaid-0 .error-text{fill:#552222;stroke:#552222;}#mermaid-0 .edge-thickness-normal{stroke-width:2px;}#mermaid-0 .edge-thickness-thick{stroke-width:3.5px;}#mermaid-0 .edge-pattern-solid{stroke-dasharray:0;}#mermaid-0 .edge-pattern-dashed{stroke-dasharray:3;}#mermaid-0 .edge-pattern-dotted{stroke-dasharray:2;}#mermaid-0 .marker{fill:#000000;stroke:#000000;}#mermaid-0 .marker.cross{stroke:#000000;}#mermaid-0 svg{font-family:"trebuchet ms",verdana,arial,sans-serif;font-size:16px;}#mermaid-0 .entityBox{fill:#cde498;stroke:#13540c;}#mermaid-0 .attributeBoxOdd{fill:#ffffff;stroke:#13540c;}#mermaid-0 .attributeBoxEven{fill:#f2f2f2;stroke:#13540c;}#mermaid-0 .relationshipLabelBox{fill:hsl(78.1578947368, 58.4615384615%, 84.5098039216%);opacity:0.7;background-color:hsl(78.1578947368, 58.4615384615%, 84.5098039216%);}#mermaid-0 .relationshipLabelBox rect{opacity:0.5;}#mermaid-0 .relationshipLine{stroke:#000000;}#mermaid-0 .entityTitleText{text-anchor:middle;font-size:18px;fill:#000000;}#mermaid-0 :root{--mermaid-font-family:"trebuchet ms",verdana,arial,sans-serif;}</style><g/><defs><marker orient="auto" markerHeight="18" markerWidth="18" refY="9" refX="0" id="ONLY_ONE_START"><path d="M9,0 L9,18 M15,0 L15,18" fill="none" stroke="gray"/></marker></defs><defs><marker orient="auto" markerHeight="18" markerWidth="18" refY="9" refX="18" id="ONLY_ONE_END"><path d="M3,0 L3,18 M9,0 L9,18" fill="none" stroke="gray"/></marker></defs><defs><marker orient="auto" markerHeight="18" markerWidth="30" refY="9" refX="0" id="ZERO_OR_ONE_START"><circle r="6" cy="9" cx="21" fill="white" stroke="gray"/><path d="M9,0 L9,18" fill="none" stroke="gray"/></marker></defs><defs><marker orient="auto" markerHeight="18" markerWidth="30" refY="9" refX="30" id="ZERO_OR_ONE_END"><circle r="6" cy="9" cx="9" fill="white" stroke="gray"/><path d="M21,0 L21,18" fill="none" stroke="gray"/></marker></defs><defs><marker orient="auto" markerHeight="36" markerWidth="45" refY="18" refX="18" id="ONE_OR_MORE_START"><path d="M0,18 Q 18,0 36,18 Q 18,36 0,18 M42,9 L42,27" fill="none" stroke="gray"/></marker></defs><defs><marker orient="auto" markerHeight="36" markerWidth="45" refY="18" refX="27" id="ONE_OR_MORE_END"><path d="M3,9 L3,27 M9,18 Q27,0 45,18 Q27,36 9,18" fill="none" stroke="gray"/></marker></defs><defs><marker orient="auto" markerHeight="36" markerWidth="57" refY="18" refX="18" id="ZERO_OR_MORE_START"><circle r="6" cy="18" cx="48" fill="white" stroke="gray"/><path d="M0,18 Q18,0 36,18 Q18,36 0,18" fill="none" stroke="gray"/></marker></defs><defs><marker orient="auto" markerHeight="36" markerWidth="57" refY="18" refX="39" id="ZERO_OR_MORE_END"><circle r="6" cy="18" cx="9" fill="white" stroke="gray"/><path d="M21,18 Q39,0 57,18 Q39,36 21,18" fill="none" stroke="gray"/></marker></defs><path style="stroke: gray; fill: none;" marker-start="url(#ZERO_OR_MORE_START)" marker-end="url(#ONLY_ONE_END)" d="M313.0888366699219,322L313.0888366699219,330.3333333333333C313.0888366699219,338.6666666666667,313.0888366699219,355.3333333333333,313.0888366699219,372C313.0888366699219,388.6666666666667,313.0888366699219,405.3333333333333,313.0888366699219,413.6666666666667L313.0888366699219,422" class="er relationshipLine"/><path style="stroke: gray; fill: none;" marker-start="url(#ZERO_OR_MORE_START)" marker-end="url(#ONLY_ONE_END)" d="M143.76176532946135,110L133.68277298776727,118.33333333333333C123.60378064607319,126.66666666666667,103.44579596268504,143.33333333333334,93.36680362099095,160C83.28781127929688,176.66666666666666,83.28781127929688,193.33333333333334,83.28781127929688,201.66666666666666L83.28781127929688,210" class="er relationshipLine"/><path style="stroke: gray; fill: none;" marker-start="url(#ZERO_OR_MORE_START)" marker-end="url(#ONLY_ONE_END)" d="M252.6148826197574,110L262.69387496145146,118.33333333333333C272.7728673031456,126.66666666666667,292.9308519865337,143.33333333333334,303.00984432822776,160C313.0888366699219,176.66666666666666,313.0888366699219,193.33333333333334,313.0888366699219,201.66666666666666L313.0888366699219,210" class="er relationshipLine"/><g transform="translate(20,210 )" id="entity-Equipment-7adc878d-8a84-4428-8d2e-f0dce3ecde09"><rect height="112" width="126.57562255859375" y="0" x="0" class="er entityBox"/><text style="dominant-baseline: middle; text-anchor: middle; font-size: 12px;" transform="translate(63.287811279296875,12)" y="0" x="0" id="text-entity-Equipment-7adc878d-8a84-4428-8d2e-f0dce3ecde09" class="er entityLabel">Equipment</text><rect height="22" width="46.649749755859375" y="24" x="0" class="er attributeBoxOdd"/><text style="dominant-baseline: middle; font-size: 10.2px;" transform="translate(5,35)" y="0" x="0" id="text-entity-Equipment-7adc878d-8a84-4428-8d2e-f0dce3ecde09-attr-1-type" class="er entityLabel">String</text><rect height="22" width="57.238189697265625" y="24" x="46.649749755859375" class="er attributeBoxOdd"/><text style="dominant-baseline: middle; font-size: 10.2px;" transform="translate(51.649749755859375,35)" y="0" x="0" id="text-entity-Equipment-7adc878d-8a84-4428-8d2e-f0dce3ecde09-attr-1-name" class="er entityLabel">id</text><rect height="22" width="22.68768310546875" y="24" x="103.887939453125" class="er attributeBoxOdd"/><text style="dominant-baseline: middle; font-size: 10.2px;" transform="translate(108.887939453125,35)" y="0" x="0" id="text-entity-Equipment-7adc878d-8a84-4428-8d2e-f0dce3ecde09-attr-1-key" class="er entityLabel">PK</text><rect height="22" width="46.649749755859375" y="46" x="0" class="er attributeBoxEven"/><text style="dominant-baseline: middle; font-size: 10.2px;" transform="translate(5,57)" y="0" x="0" id="text-entity-Equipment-7adc878d-8a84-4428-8d2e-f0dce3ecde09-attr-2-type" class="er entityLabel">String</text><rect height="22" width="57.238189697265625" y="46" x="46.649749755859375" class="er attributeBoxEven"/><text style="dominant-baseline: middle; font-size: 10.2px;" transform="translate(51.649749755859375,57)" y="0" x="0" id="text-entity-Equipment-7adc878d-8a84-4428-8d2e-f0dce3ecde09-attr-2-name" class="er entityLabel">name</text><rect height="22" width="22.68768310546875" y="46" x="103.887939453125" class="er attributeBoxEven"/><text style="dominant-baseline: middle; font-size: 10.2px;" transform="translate(108.887939453125,57)" y="0" x="0" id="text-entity-Equipment-7adc878d-8a84-4428-8d2e-f0dce3ecde09-attr-2-key" class="er entityLabel"/><rect height="22" width="46.649749755859375" y="68" x="0" class="er attributeBoxOdd"/><text style="dominant-baseline: middle; font-size: 10.2px;" transform="translate(5,79)" y="0" x="0" id="text-entity-Equipment-7adc878d-8a84-4428-8d2e-f0dce3ecde09-attr-3-type" class="er entityLabel">Decimal</text><rect height="22" width="57.238189697265625" y="68" x="46.649749755859375" class="er attributeBoxOdd"/><text style="dominant-baseline: middle; font-size: 10.2px;" transform="translate(51.649749755859375,79)" y="0" x="0" id="text-entity-Equipment-7adc878d-8a84-4428-8d2e-f0dce3ecde09-attr-3-name" class="er entityLabel">power</text><rect height="22" width="22.68768310546875" y="68" x="103.887939453125" class="er attributeBoxOdd"/><text style="dominant-baseline: middle; font-size: 10.2px;" transform="translate(108.887939453125,79)" y="0" x="0" id="text-entity-Equipment-7adc878d-8a84-4428-8d2e-f0dce3ecde09-attr-3-key" class="er entityLabel"/><rect height="22" width="46.649749755859375" y="90" x="0" class="er attributeBoxEven"/><text style="dominant-baseline: middle; font-size: 10.2px;" transform="translate(5,101)" y="0" x="0" id="text-entity-Equipment-7adc878d-8a84-4428-8d2e-f0dce3ecde09-attr-4-type" class="er entityLabel">Boolean</text><rect height="22" width="57.238189697265625" y="90" x="46.649749755859375" class="er attributeBoxEven"/><text style="dominant-baseline: middle; font-size: 10.2px;" transform="translate(51.649749755859375,101)" y="0" x="0" id="text-entity-Equipment-7adc878d-8a84-4428-8d2e-f0dce3ecde09-attr-4-name" class="er entityLabel">isResistive</text><rect height="22" width="22.68768310546875" y="90" x="103.887939453125" class="er attributeBoxEven"/><text style="dominant-baseline: middle; font-size: 10.2px;" transform="translate(108.887939453125,101)" y="0" x="0" id="text-entity-Equipment-7adc878d-8a84-4428-8d2e-f0dce3ecde09-attr-4-key" class="er entityLabel"/></g><g transform="translate(246.57562255859375,422 )" id="entity-User-33544b37-6c27-4eb4-80fe-4353c0b6098b"><rect height="112" width="133.02642822265625" y="0" x="0" class="er entityBox"/><text style="dominant-baseline: middle; text-anchor: middle; font-size: 12px;" transform="translate(66.51321411132812,12)" y="0" x="0" id="text-entity-User-33544b37-6c27-4eb4-80fe-4353c0b6098b" class="er entityLabel">User</text><rect height="22" width="54.095550537109375" y="24" x="0" class="er attributeBoxOdd"/><text style="dominant-baseline: middle; font-size: 10.2px;" transform="translate(5,35)" y="0" x="0" id="text-entity-User-33544b37-6c27-4eb4-80fe-4353c0b6098b-attr-1-type" class="er entityLabel">String</text><rect height="22" width="56.243194580078125" y="24" x="54.095550537109375" class="er attributeBoxOdd"/><text style="dominant-baseline: middle; font-size: 10.2px;" transform="translate(59.095550537109375,35)" y="0" x="0" id="text-entity-User-33544b37-6c27-4eb4-80fe-4353c0b6098b-attr-1-name" class="er entityLabel">id</text><rect height="22" width="22.68768310546875" y="24" x="110.3387451171875" class="er attributeBoxOdd"/><text style="dominant-baseline: middle; font-size: 10.2px;" transform="translate(115.3387451171875,35)" y="0" x="0" id="text-entity-User-33544b37-6c27-4eb4-80fe-4353c0b6098b-attr-1-key" class="er entityLabel">PK</text><rect height="22" width="54.095550537109375" y="46" x="0" class="er attributeBoxEven"/><text style="dominant-baseline: middle; font-size: 10.2px;" transform="translate(5,57)" y="0" x="0" id="text-entity-User-33544b37-6c27-4eb4-80fe-4353c0b6098b-attr-2-type" class="er entityLabel">String</text><rect height="22" width="56.243194580078125" y="46" x="54.095550537109375" class="er attributeBoxEven"/><text style="dominant-baseline: middle; font-size: 10.2px;" transform="translate(59.095550537109375,57)" y="0" x="0" id="text-entity-User-33544b37-6c27-4eb4-80fe-4353c0b6098b-attr-2-name" class="er entityLabel">name</text><rect height="22" width="22.68768310546875" y="46" x="110.3387451171875" class="er attributeBoxEven"/><text style="dominant-baseline: middle; font-size: 10.2px;" transform="translate(115.3387451171875,57)" y="0" x="0" id="text-entity-User-33544b37-6c27-4eb4-80fe-4353c0b6098b-attr-2-key" class="er entityLabel"/><rect height="22" width="54.095550537109375" y="68" x="0" class="er attributeBoxOdd"/><text style="dominant-baseline: middle; font-size: 10.2px;" transform="translate(5,79)" y="0" x="0" id="text-entity-User-33544b37-6c27-4eb4-80fe-4353c0b6098b-attr-3-type" class="er entityLabel">String</text><rect height="22" width="56.243194580078125" y="68" x="54.095550537109375" class="er attributeBoxOdd"/><text style="dominant-baseline: middle; font-size: 10.2px;" transform="translate(59.095550537109375,79)" y="0" x="0" id="text-entity-User-33544b37-6c27-4eb4-80fe-4353c0b6098b-attr-3-name" class="er entityLabel">email</text><rect height="22" width="22.68768310546875" y="68" x="110.3387451171875" class="er attributeBoxOdd"/><text style="dominant-baseline: middle; font-size: 10.2px;" transform="translate(115.3387451171875,79)" y="0" x="0" id="text-entity-User-33544b37-6c27-4eb4-80fe-4353c0b6098b-attr-3-key" class="er entityLabel"/><rect height="22" width="54.095550537109375" y="90" x="0" class="er attributeBoxEven"/><text style="dominant-baseline: middle; font-size: 10.2px;" transform="translate(5,101)" y="0" x="0" id="text-entity-User-33544b37-6c27-4eb4-80fe-4353c0b6098b-attr-4-type" class="er entityLabel">DateTime</text><rect height="22" width="56.243194580078125" y="90" x="54.095550537109375" class="er attributeBoxEven"/><text style="dominant-baseline: middle; font-size: 10.2px;" transform="translate(59.095550537109375,101)" y="0" x="0" id="text-entity-User-33544b37-6c27-4eb4-80fe-4353c0b6098b-attr-4-name" class="er entityLabel">createdAt</text><rect height="22" width="22.68768310546875" y="90" x="110.3387451171875" class="er attributeBoxEven"/><text style="dominant-baseline: middle; font-size: 10.2px;" transform="translate(115.3387451171875,101)" y="0" x="0" id="text-entity-User-33544b37-6c27-4eb4-80fe-4353c0b6098b-attr-4-key" class="er entityLabel"/></g><g transform="translate(246.57562255859375,210 )" id="entity-Project-e5a740c4-6e96-4d41-ae7a-b8af20988b2b"><rect height="112" width="133.02642822265625" y="0" x="0" class="er entityBox"/><text style="dominant-baseline: middle; text-anchor: middle; font-size: 12px;" transform="translate(66.51321411132812,12)" y="0" x="0" id="text-entity-Project-e5a740c4-6e96-4d41-ae7a-b8af20988b2b" class="er entityLabel">Project</text><rect height="22" width="54.095550537109375" y="24" x="0" class="er attributeBoxOdd"/><text style="dominant-baseline: middle; font-size: 10.2px;" transform="translate(5,35)" y="0" x="0" id="text-entity-Project-e5a740c4-6e96-4d41-ae7a-b8af20988b2b-attr-1-type" class="er entityLabel">String</text><rect height="22" width="56.243194580078125" y="24" x="54.095550537109375" class="er attributeBoxOdd"/><text style="dominant-baseline: middle; font-size: 10.2px;" transform="translate(59.095550537109375,35)" y="0" x="0" id="text-entity-Project-e5a740c4-6e96-4d41-ae7a-b8af20988b2b-attr-1-name" class="er entityLabel">id</text><rect height="22" width="22.68768310546875" y="24" x="110.3387451171875" class="er attributeBoxOdd"/><text style="dominant-baseline: middle; font-size: 10.2px;" transform="translate(115.3387451171875,35)" y="0" x="0" id="text-entity-Project-e5a740c4-6e96-4d41-ae7a-b8af20988b2b-attr-1-key" class="er entityLabel">PK</text><rect height="22" width="54.095550537109375" y="46" x="0" class="er attributeBoxEven"/><text style="dominant-baseline: middle; font-size: 10.2px;" transform="translate(5,57)" y="0" x="0" id="text-entity-Project-e5a740c4-6e96-4d41-ae7a-b8af20988b2b-attr-2-type" class="er entityLabel">String</text><rect height="22" width="56.243194580078125" y="46" x="54.095550537109375" class="er attributeBoxEven"/><text style="dominant-baseline: middle; font-size: 10.2px;" transform="translate(59.095550537109375,57)" y="0" x="0" id="text-entity-Project-e5a740c4-6e96-4d41-ae7a-b8af20988b2b-attr-2-name" class="er entityLabel">name</text><rect height="22" width="22.68768310546875" y="46" x="110.3387451171875" class="er attributeBoxEven"/><text style="dominant-baseline: middle; font-size: 10.2px;" transform="translate(115.3387451171875,57)" y="0" x="0" id="text-entity-Project-e5a740c4-6e96-4d41-ae7a-b8af20988b2b-attr-2-key" class="er entityLabel"/><rect height="22" width="54.095550537109375" y="68" x="0" class="er attributeBoxOdd"/><text style="dominant-baseline: middle; font-size: 10.2px;" transform="translate(5,79)" y="0" x="0" id="text-entity-Project-e5a740c4-6e96-4d41-ae7a-b8af20988b2b-attr-3-type" class="er entityLabel">DateTime</text><rect height="22" width="56.243194580078125" y="68" x="54.095550537109375" class="er attributeBoxOdd"/><text style="dominant-baseline: middle; font-size: 10.2px;" transform="translate(59.095550537109375,79)" y="0" x="0" id="text-entity-Project-e5a740c4-6e96-4d41-ae7a-b8af20988b2b-attr-3-name" class="er entityLabel">createdAt</text><rect height="22" width="22.68768310546875" y="68" x="110.3387451171875" class="er attributeBoxOdd"/><text style="dominant-baseline: middle; font-size: 10.2px;" transform="translate(115.3387451171875,79)" y="0" x="0" id="text-entity-Project-e5a740c4-6e96-4d41-ae7a-b8af20988b2b-attr-3-key" class="er entityLabel"/><rect height="22" width="54.095550537109375" y="90" x="0" class="er attributeBoxEven"/><text style="dominant-baseline: middle; font-size: 10.2px;" transform="translate(5,101)" y="0" x="0" id="text-entity-Project-e5a740c4-6e96-4d41-ae7a-b8af20988b2b-attr-4-type" class="er entityLabel">DateTime</text><rect height="22" width="56.243194580078125" y="90" x="54.095550537109375" class="er attributeBoxEven"/><text style="dominant-baseline: middle; font-size: 10.2px;" transform="translate(59.095550537109375,101)" y="0" x="0" id="text-entity-Project-e5a740c4-6e96-4d41-ae7a-b8af20988b2b-attr-4-name" class="er entityLabel">updtedAt</text><rect height="22" width="22.68768310546875" y="90" x="110.3387451171875" class="er attributeBoxEven"/><text style="dominant-baseline: middle; font-size: 10.2px;" transform="translate(115.3387451171875,101)" y="0" x="0" id="text-entity-Project-e5a740c4-6e96-4d41-ae7a-b8af20988b2b-attr-4-key" class="er entityLabel"/></g><g transform="translate(140.80919647216797,20 )" id="entity-ProjectItem-fe4aac1e-eef8-431e-b36e-bb6b7bf7a297"><rect height="90" width="114.75825500488281" y="0" x="0" class="er entityBox"/><text style="dominant-baseline: middle; text-anchor: middle; font-size: 12px;" transform="translate(57.379127502441406,12)" y="0" x="0" id="text-entity-ProjectItem-fe4aac1e-eef8-431e-b36e-bb6b7bf7a297" class="er entityLabel">ProjectItem</text><rect height="22" width="46.625" y="24" x="0" class="er attributeBoxOdd"/><text style="dominant-baseline: middle; font-size: 10.2px;" transform="translate(5,35)" y="0" x="0" id="text-entity-ProjectItem-fe4aac1e-eef8-431e-b36e-bb6b7bf7a297-attr-1-type" class="er entityLabel">String</text><rect height="22" width="45.44557189941406" y="24" x="46.625" class="er attributeBoxOdd"/><text style="dominant-baseline: middle; font-size: 10.2px;" transform="translate(51.625,35)" y="0" x="0" id="text-entity-ProjectItem-fe4aac1e-eef8-431e-b36e-bb6b7bf7a297-attr-1-name" class="er entityLabel">id</text><rect height="22" width="22.68768310546875" y="24" x="92.07057189941406" class="er attributeBoxOdd"/><text style="dominant-baseline: middle; font-size: 10.2px;" transform="translate(97.07057189941406,35)" y="0" x="0" id="text-entity-ProjectItem-fe4aac1e-eef8-431e-b36e-bb6b7bf7a297-attr-1-key" class="er entityLabel">PK</text><rect height="22" width="46.625" y="46" x="0" class="er attributeBoxEven"/><text style="dominant-baseline: middle; font-size: 10.2px;" transform="translate(5,57)" y="0" x="0" id="text-entity-ProjectItem-fe4aac1e-eef8-431e-b36e-bb6b7bf7a297-attr-2-type" class="er entityLabel">Decimal</text><rect height="22" width="45.44557189941406" y="46" x="46.625" class="er attributeBoxEven"/><text style="dominant-baseline: middle; font-size: 10.2px;" transform="translate(51.625,57)" y="0" x="0" id="text-entity-ProjectItem-fe4aac1e-eef8-431e-b36e-bb6b7bf7a297-attr-2-name" class="er entityLabel">power</text><rect height="22" width="22.68768310546875" y="46" x="92.07057189941406" class="er attributeBoxEven"/><text style="dominant-baseline: middle; font-size: 10.2px;" transform="translate(97.07057189941406,57)" y="0" x="0" id="text-entity-ProjectItem-fe4aac1e-eef8-431e-b36e-bb6b7bf7a297-attr-2-key" class="er entityLabel"/><rect height="22" width="46.625" y="68" x="0" class="er attributeBoxOdd"/><text style="dominant-baseline: middle; font-size: 10.2px;" transform="translate(5,79)" y="0" x="0" id="text-entity-ProjectItem-fe4aac1e-eef8-431e-b36e-bb6b7bf7a297-attr-3-type" class="er entityLabel">Int</text><rect height="22" width="45.44557189941406" y="68" x="46.625" class="er attributeBoxOdd"/><text style="dominant-baseline: middle; font-size: 10.2px;" transform="translate(51.625,79)" y="0" x="0" id="text-entity-ProjectItem-fe4aac1e-eef8-431e-b36e-bb6b7bf7a297-attr-3-name" class="er entityLabel">amount</text><rect height="22" width="22.68768310546875" y="68" x="92.07057189941406" class="er attributeBoxOdd"/><text style="dominant-baseline: middle; font-size: 10.2px;" transform="translate(97.07057189941406,79)" y="0" x="0" id="text-entity-ProjectItem-fe4aac1e-eef8-431e-b36e-bb6b7bf7a297-attr-3-key" class="er entityLabel"/></g><rect height="14" width="34.470703125" y="365" x="295.8534851074219" class="er relationshipLabelBox"/><text style="text-anchor: middle; dominant-baseline: middle; font-size: 12px;" y="372" x="313.0888366699219" id="rel1" class="er relationshipLabel">owner</text><rect height="14" width="57.95703125" y="144.9889373779297" x="69.95320892333984" class="er relationshipLabelBox"/><text style="text-anchor: middle; dominant-baseline: middle; font-size: 12px;" y="151.9889373779297" x="98.93172454833984" id="rel2" class="er relationshipLabel">equipment</text><rect height="14" width="39.67578125" y="144.9889373779297" x="277.6070556640625" class="er relationshipLabelBox"/><text style="text-anchor: middle; dominant-baseline: middle; font-size: 12px;" y="151.9889373779297" x="297.4449462890625" id="rel3" class="er relationshipLabel">project</text></svg>