<svg aria-roledescription="er" viewBox="0 0 628.6641845703125 576" style="max-width: 628.664px; background-color: white;" xmlns:xlink="http://www.w3.org/1999/xlink" xmlns="http://www.w3.org/2000/svg" width="100%" id="mermaid-0"><style>#mermaid-0{font-family:"trebuchet ms",verdana,arial,sans-serif;font-size:16px;fill:#000000;}#mermaid-0 .error-icon{fill:#552222;}#mermaid-0 .error-text{fill:#552222;stroke:#552222;}#mermaid-0 .edge-thickness-normal{stroke-width:2px;}#mermaid-0 .edge-thickness-thick{stroke-width:3.5px;}#mermaid-0 .edge-pattern-solid{stroke-dasharray:0;}#mermaid-0 .edge-pattern-dashed{stroke-dasharray:3;}#mermaid-0 .edge-pattern-dotted{stroke-dasharray:2;}#mermaid-0 .marker{fill:#000000;stroke:#000000;}#mermaid-0 .marker.cross{stroke:#000000;}#mermaid-0 svg{font-family:"trebuchet ms",verdana,arial,sans-serif;font-size:16px;}#mermaid-0 .entityBox{fill:#cde498;stroke:#13540c;}#mermaid-0 .attributeBoxOdd{fill:#ffffff;stroke:#13540c;}#mermaid-0 .attributeBoxEven{fill:#f2f2f2;stroke:#13540c;}#mermaid-0 .relationshipLabelBox{fill:hsl(78.1578947368, 58.4615384615%, 84.5098039216%);opacity:0.7;background-color:hsl(78.1578947368, 58.4615384615%, 84.5098039216%);}#mermaid-0 .relationshipLabelBox rect{opacity:0.5;}#mermaid-0 .relationshipLine{stroke:#000000;}#mermaid-0 .entityTitleText{text-anchor:middle;font-size:18px;fill:#000000;}#mermaid-0 :root{--mermaid-font-family:"trebuchet ms",verdana,arial,sans-serif;}</style><g/><defs><marker orient="auto" markerHeight="18" markerWidth="18" refY="9" refX="0" id="ONLY_ONE_START"><path d="M9,0 L9,18 M15,0 L15,18" fill="none" stroke="gray"/></marker></defs><defs><marker orient="auto" markerHeight="18" markerWidth="18" refY="9" refX="18" id="ONLY_ONE_END"><path d="M3,0 L3,18 M9,0 L9,18" fill="none" stroke="gray"/></marker></defs><defs><marker orient="auto" markerHeight="18" markerWidth="30" refY="9" refX="0" id="ZERO_OR_ONE_START"><circle r="6" cy="9" cx="21" fill="white" stroke="gray"/><path d="M9,0 L9,18" fill="none" stroke="gray"/></marker></defs><defs><marker orient="auto" markerHeight="18" markerWidth="30" refY="9" refX="30" id="ZERO_OR_ONE_END"><circle r="6" cy="9" cx="9" fill="white" stroke="gray"/><path d="M21,0 L21,18" fill="none" stroke="gray"/></marker></defs><defs><marker orient="auto" markerHeight="36" markerWidth="45" refY="18" refX="18" id="ONE_OR_MORE_START"><path d="M0,18 Q 18,0 36,18 Q 18,36 0,18 M42,9 L42,27" fill="none" stroke="gray"/></marker></defs><defs><marker orient="auto" markerHeight="36" markerWidth="45" refY="18" refX="27" id="ONE_OR_MORE_END"><path d="M3,9 L3,27 M9,18 Q27,0 45,18 Q27,36 9,18" fill="none" stroke="gray"/></marker></defs><defs><marker orient="auto" markerHeight="36" markerWidth="57" refY="18" refX="18" id="ZERO_OR_MORE_START"><circle r="6" cy="18" cx="48" fill="white" stroke="gray"/><path d="M0,18 Q18,0 36,18 Q18,36 0,18" fill="none" stroke="gray"/></marker></defs><defs><marker orient="auto" markerHeight="36" markerWidth="57" refY="18" refX="39" id="ZERO_OR_MORE_END"><circle r="6" cy="18" cx="9" fill="white" stroke="gray"/><path d="M21,18 Q39,0 57,18 Q39,36 21,18" fill="none" stroke="gray"/></marker></defs><path style="stroke: gray; fill: none;" marker-start="url(#ZERO_OR_MORE_START)" marker-end="url(#ONLY_ONE_END)" d="M97.81886291503906,344L97.81886291503906,352.3333333333333C97.81886291503906,360.6666666666667,97.81886291503906,377.3333333333333,97.81886291503906,397.6666666666667C97.81886291503906,418,97.81886291503906,442,97.81886291503906,454L97.81886291503906,466" class="er relationshipLine"/><path style="stroke: gray; fill: none;" marker-start="url(#ZERO_OR_MORE_START)" marker-end="url(#ONLY_ONE_END)" d="M342.15093994140625,333L342.15093994140625,343.1666666666667C342.15093994140625,353.3333333333333,342.15093994140625,373.6666666666667,342.15093994140625,392.1666666666667C342.15093994140625,410.6666666666667,342.15093994140625,427.3333333333333,342.15093994140625,435.6666666666667L342.15093994140625,444" class="er relationshipLine"/><path style="stroke: gray; fill: none;" marker-start="url(#ZERO_OR_MORE_START)" marker-end="url(#ZERO_OR_ONE_END)" d="M399.53006744384766,90.17637149818069L426.0524152119954,101.81364291515058C452.57476298014325,113.45091433212046,505.6194585164388,136.72545716606024,532.1418062845866,162.19606191636345C558.6641540527344,187.66666666666666,558.6641540527344,215.33333333333334,558.6641540527344,229.16666666666666L558.6641540527344,243" class="er relationshipLine"/><path style="stroke: gray; fill: none;" marker-start="url(#ZERO_OR_MORE_START)" marker-end="url(#ONLY_ONE_END)" d="M284.77181243896484,87.3098709718073L253.61298751831055,99.42489247650609C222.45416259765625,111.53991398120486,160.13651275634766,135.76995699060242,128.97768783569336,156.21831182863454C97.81886291503906,176.66666666666666,97.81886291503906,193.33333333333334,97.81886291503906,201.66666666666666L97.81886291503906,210" class="er relationshipLine"/><path style="stroke: gray; fill: none;" marker-start="url(#ZERO_OR_MORE_START)" marker-end="url(#ONLY_ONE_END)" d="M342.15093994140625,110L342.15093994140625,118.33333333333333C342.15093994140625,126.66666666666667,342.15093994140625,143.33333333333334,342.15093994140625,161.83333333333334C342.15093994140625,180.33333333333334,342.15093994140625,200.66666666666666,342.15093994140625,210.83333333333334L342.15093994140625,221" class="er relationshipLine"/><g transform="translate(20,210 )" id="entity-Equipment-e57c4209-9943-4e81-9fb0-a5da6dffc09e"><rect height="134" width="155.63772583007812" y="0" x="0" class="er entityBox"/><text style="dominant-baseline: middle; text-anchor: middle; font-size: 12px;" transform="translate(77.81886291503906,12)" y="0" x="0" id="text-entity-Equipment-e57c4209-9943-4e81-9fb0-a5da6dffc09e" class="er entityLabel">Equipment</text><rect height="22" width="46.649749755859375" y="24" x="0" class="er attributeBoxOdd"/><text style="dominant-baseline: middle; font-size: 10.2px;" transform="translate(5,35)" y="0" x="0" id="text-entity-Equipment-e57c4209-9943-4e81-9fb0-a5da6dffc09e-attr-1-type" class="er entityLabel">String</text><rect height="22" width="86.30029296875" y="24" x="46.649749755859375" class="er attributeBoxOdd"/><text style="dominant-baseline: middle; font-size: 10.2px;" transform="translate(51.649749755859375,35)" y="0" x="0" id="text-entity-Equipment-e57c4209-9943-4e81-9fb0-a5da6dffc09e-attr-1-name" class="er entityLabel">id</text><rect height="22" width="22.68768310546875" y="24" x="132.95004272460938" class="er attributeBoxOdd"/><text style="dominant-baseline: middle; font-size: 10.2px;" transform="translate(137.95004272460938,35)" y="0" x="0" id="text-entity-Equipment-e57c4209-9943-4e81-9fb0-a5da6dffc09e-attr-1-key" class="er entityLabel">PK</text><rect height="22" width="46.649749755859375" y="46" x="0" class="er attributeBoxEven"/><text style="dominant-baseline: middle; font-size: 10.2px;" transform="translate(5,57)" y="0" x="0" id="text-entity-Equipment-e57c4209-9943-4e81-9fb0-a5da6dffc09e-attr-2-type" class="er entityLabel">String</text><rect height="22" width="86.30029296875" y="46" x="46.649749755859375" class="er attributeBoxEven"/><text style="dominant-baseline: middle; font-size: 10.2px;" transform="translate(51.649749755859375,57)" y="0" x="0" id="text-entity-Equipment-e57c4209-9943-4e81-9fb0-a5da6dffc09e-attr-2-name" class="er entityLabel">name</text><rect height="22" width="22.68768310546875" y="46" x="132.95004272460938" class="er attributeBoxEven"/><text style="dominant-baseline: middle; font-size: 10.2px;" transform="translate(137.95004272460938,57)" y="0" x="0" id="text-entity-Equipment-e57c4209-9943-4e81-9fb0-a5da6dffc09e-attr-2-key" class="er entityLabel"/><rect height="22" width="46.649749755859375" y="68" x="0" class="er attributeBoxOdd"/><text style="dominant-baseline: middle; font-size: 10.2px;" transform="translate(5,79)" y="0" x="0" id="text-entity-Equipment-e57c4209-9943-4e81-9fb0-a5da6dffc09e-attr-3-type" class="er entityLabel">Decimal</text><rect height="22" width="86.30029296875" y="68" x="46.649749755859375" class="er attributeBoxOdd"/><text style="dominant-baseline: middle; font-size: 10.2px;" transform="translate(51.649749755859375,79)" y="0" x="0" id="text-entity-Equipment-e57c4209-9943-4e81-9fb0-a5da6dffc09e-attr-3-name" class="er entityLabel">power</text><rect height="22" width="22.68768310546875" y="68" x="132.95004272460938" class="er attributeBoxOdd"/><text style="dominant-baseline: middle; font-size: 10.2px;" transform="translate(137.95004272460938,79)" y="0" x="0" id="text-entity-Equipment-e57c4209-9943-4e81-9fb0-a5da6dffc09e-attr-3-key" class="er entityLabel"/><rect height="22" width="46.649749755859375" y="90" x="0" class="er attributeBoxEven"/><text style="dominant-baseline: middle; font-size: 10.2px;" transform="translate(5,101)" y="0" x="0" id="text-entity-Equipment-e57c4209-9943-4e81-9fb0-a5da6dffc09e-attr-4-type" class="er entityLabel">Boolean</text><rect height="22" width="86.30029296875" y="90" x="46.649749755859375" class="er attributeBoxEven"/><text style="dominant-baseline: middle; font-size: 10.2px;" transform="translate(51.649749755859375,101)" y="0" x="0" id="text-entity-Equipment-e57c4209-9943-4e81-9fb0-a5da6dffc09e-attr-4-name" class="er entityLabel">isResistive</text><rect height="22" width="22.68768310546875" y="90" x="132.95004272460938" class="er attributeBoxEven"/><text style="dominant-baseline: middle; font-size: 10.2px;" transform="translate(137.95004272460938,101)" y="0" x="0" id="text-entity-Equipment-e57c4209-9943-4e81-9fb0-a5da6dffc09e-attr-4-key" class="er entityLabel"/><rect height="22" width="46.649749755859375" y="112" x="0" class="er attributeBoxOdd"/><text style="dominant-baseline: middle; font-size: 10.2px;" transform="translate(5,123)" y="0" x="0" id="text-entity-Equipment-e57c4209-9943-4e81-9fb0-a5da6dffc09e-attr-5-type" class="er entityLabel">Int</text><rect height="22" width="86.30029296875" y="112" x="46.649749755859375" class="er attributeBoxOdd"/><text style="dominant-baseline: middle; font-size: 10.2px;" transform="translate(51.649749755859375,123)" y="0" x="0" id="text-entity-Equipment-e57c4209-9943-4e81-9fb0-a5da6dffc09e-attr-5-name" class="er entityLabel">numberOfPhases</text><rect height="22" width="22.68768310546875" y="112" x="132.95004272460938" class="er attributeBoxOdd"/><text style="dominant-baseline: middle; font-size: 10.2px;" transform="translate(137.95004272460938,123)" y="0" x="0" id="text-entity-Equipment-e57c4209-9943-4e81-9fb0-a5da6dffc09e-attr-5-key" class="er entityLabel"/></g><g transform="translate(41.42628479003906,466 )" id="entity-EquipmentType-c0a5df03-c786-4445-b4bb-2504ad14c1a9"><rect height="68" width="112.78515625" y="0" x="0" class="er entityBox"/><text style="dominant-baseline: middle; text-anchor: middle; font-size: 12px;" transform="translate(56.392578125,12)" y="0" x="0" id="text-entity-EquipmentType-c0a5df03-c786-4445-b4bb-2504ad14c1a9" class="er entityLabel">EquipmentType</text><rect height="22" width="43.16355895996094" y="24" x="0" class="er attributeBoxOdd"/><text style="dominant-baseline: middle; font-size: 10.2px;" transform="translate(5,35)" y="0" x="0" id="text-entity-EquipmentType-c0a5df03-c786-4445-b4bb-2504ad14c1a9-attr-1-type" class="er entityLabel">String</text><rect height="22" width="41.166412353515625" y="24" x="43.16355895996094" class="er attributeBoxOdd"/><text style="dominant-baseline: middle; font-size: 10.2px;" transform="translate(48.16355895996094,35)" y="0" x="0" id="text-entity-EquipmentType-c0a5df03-c786-4445-b4bb-2504ad14c1a9-attr-1-name" class="er entityLabel">id</text><rect height="22" width="28.455184936523438" y="24" x="84.32997131347656" class="er attributeBoxOdd"/><text style="dominant-baseline: middle; font-size: 10.2px;" transform="translate(89.32997131347656,35)" y="0" x="0" id="text-entity-EquipmentType-c0a5df03-c786-4445-b4bb-2504ad14c1a9-attr-1-key" class="er entityLabel">PK</text><rect height="22" width="43.16355895996094" y="46" x="0" class="er attributeBoxEven"/><text style="dominant-baseline: middle; font-size: 10.2px;" transform="translate(5,57)" y="0" x="0" id="text-entity-EquipmentType-c0a5df03-c786-4445-b4bb-2504ad14c1a9-attr-2-type" class="er entityLabel">String</text><rect height="22" width="41.166412353515625" y="46" x="43.16355895996094" class="er attributeBoxEven"/><text style="dominant-baseline: middle; font-size: 10.2px;" transform="translate(48.16355895996094,57)" y="0" x="0" id="text-entity-EquipmentType-c0a5df03-c786-4445-b4bb-2504ad14c1a9-attr-2-name" class="er entityLabel">name</text><rect height="22" width="28.455184936523438" y="46" x="84.32997131347656" class="er attributeBoxEven"/><text style="dominant-baseline: middle; font-size: 10.2px;" transform="translate(89.32997131347656,57)" y="0" x="0" id="text-entity-EquipmentType-c0a5df03-c786-4445-b4bb-2504ad14c1a9-attr-2-key" class="er entityLabel"/></g><g transform="translate(275.6377258300781,444 )" id="entity-User-4519b605-82f5-4784-88e5-47561e5da9b5"><rect height="112" width="133.02642822265625" y="0" x="0" class="er entityBox"/><text style="dominant-baseline: middle; text-anchor: middle; font-size: 12px;" transform="translate(66.51321411132812,12)" y="0" x="0" id="text-entity-User-4519b605-82f5-4784-88e5-47561e5da9b5" class="er entityLabel">User</text><rect height="22" width="54.095550537109375" y="24" x="0" class="er attributeBoxOdd"/><text style="dominant-baseline: middle; font-size: 10.2px;" transform="translate(5,35)" y="0" x="0" id="text-entity-User-4519b605-82f5-4784-88e5-47561e5da9b5-attr-1-type" class="er entityLabel">String</text><rect height="22" width="56.243194580078125" y="24" x="54.095550537109375" class="er attributeBoxOdd"/><text style="dominant-baseline: middle; font-size: 10.2px;" transform="translate(59.095550537109375,35)" y="0" x="0" id="text-entity-User-4519b605-82f5-4784-88e5-47561e5da9b5-attr-1-name" class="er entityLabel">id</text><rect height="22" width="22.68768310546875" y="24" x="110.3387451171875" class="er attributeBoxOdd"/><text style="dominant-baseline: middle; font-size: 10.2px;" transform="translate(115.3387451171875,35)" y="0" x="0" id="text-entity-User-4519b605-82f5-4784-88e5-47561e5da9b5-attr-1-key" class="er entityLabel">PK</text><rect height="22" width="54.095550537109375" y="46" x="0" class="er attributeBoxEven"/><text style="dominant-baseline: middle; font-size: 10.2px;" transform="translate(5,57)" y="0" x="0" id="text-entity-User-4519b605-82f5-4784-88e5-47561e5da9b5-attr-2-type" class="er entityLabel">String</text><rect height="22" width="56.243194580078125" y="46" x="54.095550537109375" class="er attributeBoxEven"/><text style="dominant-baseline: middle; font-size: 10.2px;" transform="translate(59.095550537109375,57)" y="0" x="0" id="text-entity-User-4519b605-82f5-4784-88e5-47561e5da9b5-attr-2-name" class="er entityLabel">name</text><rect height="22" width="22.68768310546875" y="46" x="110.3387451171875" class="er attributeBoxEven"/><text style="dominant-baseline: middle; font-size: 10.2px;" transform="translate(115.3387451171875,57)" y="0" x="0" id="text-entity-User-4519b605-82f5-4784-88e5-47561e5da9b5-attr-2-key" class="er entityLabel"/><rect height="22" width="54.095550537109375" y="68" x="0" class="er attributeBoxOdd"/><text style="dominant-baseline: middle; font-size: 10.2px;" transform="translate(5,79)" y="0" x="0" id="text-entity-User-4519b605-82f5-4784-88e5-47561e5da9b5-attr-3-type" class="er entityLabel">String</text><rect height="22" width="56.243194580078125" y="68" x="54.095550537109375" class="er attributeBoxOdd"/><text style="dominant-baseline: middle; font-size: 10.2px;" transform="translate(59.095550537109375,79)" y="0" x="0" id="text-entity-User-4519b605-82f5-4784-88e5-47561e5da9b5-attr-3-name" class="er entityLabel">email</text><rect height="22" width="22.68768310546875" y="68" x="110.3387451171875" class="er attributeBoxOdd"/><text style="dominant-baseline: middle; font-size: 10.2px;" transform="translate(115.3387451171875,79)" y="0" x="0" id="text-entity-User-4519b605-82f5-4784-88e5-47561e5da9b5-attr-3-key" class="er entityLabel"/><rect height="22" width="54.095550537109375" y="90" x="0" class="er attributeBoxEven"/><text style="dominant-baseline: middle; font-size: 10.2px;" transform="translate(5,101)" y="0" x="0" id="text-entity-User-4519b605-82f5-4784-88e5-47561e5da9b5-attr-4-type" class="er entityLabel">DateTime</text><rect height="22" width="56.243194580078125" y="90" x="54.095550537109375" class="er attributeBoxEven"/><text style="dominant-baseline: middle; font-size: 10.2px;" transform="translate(59.095550537109375,101)" y="0" x="0" id="text-entity-User-4519b605-82f5-4784-88e5-47561e5da9b5-attr-4-name" class="er entityLabel">createdAt</text><rect height="22" width="22.68768310546875" y="90" x="110.3387451171875" class="er attributeBoxEven"/><text style="dominant-baseline: middle; font-size: 10.2px;" transform="translate(115.3387451171875,101)" y="0" x="0" id="text-entity-User-4519b605-82f5-4784-88e5-47561e5da9b5-attr-4-key" class="er entityLabel"/></g><g transform="translate(275.6377258300781,221 )" id="entity-Project-7aff2950-399a-4528-8461-5517d71f59ad"><rect height="112" width="133.02642822265625" y="0" x="0" class="er entityBox"/><text style="dominant-baseline: middle; text-anchor: middle; font-size: 12px;" transform="translate(66.51321411132812,12)" y="0" x="0" id="text-entity-Project-7aff2950-399a-4528-8461-5517d71f59ad" class="er entityLabel">Project</text><rect height="22" width="54.095550537109375" y="24" x="0" class="er attributeBoxOdd"/><text style="dominant-baseline: middle; font-size: 10.2px;" transform="translate(5,35)" y="0" x="0" id="text-entity-Project-7aff2950-399a-4528-8461-5517d71f59ad-attr-1-type" class="er entityLabel">String</text><rect height="22" width="56.243194580078125" y="24" x="54.095550537109375" class="er attributeBoxOdd"/><text style="dominant-baseline: middle; font-size: 10.2px;" transform="translate(59.095550537109375,35)" y="0" x="0" id="text-entity-Project-7aff2950-399a-4528-8461-5517d71f59ad-attr-1-name" class="er entityLabel">id</text><rect height="22" width="22.68768310546875" y="24" x="110.3387451171875" class="er attributeBoxOdd"/><text style="dominant-baseline: middle; font-size: 10.2px;" transform="translate(115.3387451171875,35)" y="0" x="0" id="text-entity-Project-7aff2950-399a-4528-8461-5517d71f59ad-attr-1-key" class="er entityLabel">PK</text><rect height="22" width="54.095550537109375" y="46" x="0" class="er attributeBoxEven"/><text style="dominant-baseline: middle; font-size: 10.2px;" transform="translate(5,57)" y="0" x="0" id="text-entity-Project-7aff2950-399a-4528-8461-5517d71f59ad-attr-2-type" class="er entityLabel">String</text><rect height="22" width="56.243194580078125" y="46" x="54.095550537109375" class="er attributeBoxEven"/><text style="dominant-baseline: middle; font-size: 10.2px;" transform="translate(59.095550537109375,57)" y="0" x="0" id="text-entity-Project-7aff2950-399a-4528-8461-5517d71f59ad-attr-2-name" class="er entityLabel">name</text><rect height="22" width="22.68768310546875" y="46" x="110.3387451171875" class="er attributeBoxEven"/><text style="dominant-baseline: middle; font-size: 10.2px;" transform="translate(115.3387451171875,57)" y="0" x="0" id="text-entity-Project-7aff2950-399a-4528-8461-5517d71f59ad-attr-2-key" class="er entityLabel"/><rect height="22" width="54.095550537109375" y="68" x="0" class="er attributeBoxOdd"/><text style="dominant-baseline: middle; font-size: 10.2px;" transform="translate(5,79)" y="0" x="0" id="text-entity-Project-7aff2950-399a-4528-8461-5517d71f59ad-attr-3-type" class="er entityLabel">DateTime</text><rect height="22" width="56.243194580078125" y="68" x="54.095550537109375" class="er attributeBoxOdd"/><text style="dominant-baseline: middle; font-size: 10.2px;" transform="translate(59.095550537109375,79)" y="0" x="0" id="text-entity-Project-7aff2950-399a-4528-8461-5517d71f59ad-attr-3-name" class="er entityLabel">createdAt</text><rect height="22" width="22.68768310546875" y="68" x="110.3387451171875" class="er attributeBoxOdd"/><text style="dominant-baseline: middle; font-size: 10.2px;" transform="translate(115.3387451171875,79)" y="0" x="0" id="text-entity-Project-7aff2950-399a-4528-8461-5517d71f59ad-attr-3-key" class="er entityLabel"/><rect height="22" width="54.095550537109375" y="90" x="0" class="er attributeBoxEven"/><text style="dominant-baseline: middle; font-size: 10.2px;" transform="translate(5,101)" y="0" x="0" id="text-entity-Project-7aff2950-399a-4528-8461-5517d71f59ad-attr-4-type" class="er entityLabel">DateTime</text><rect height="22" width="56.243194580078125" y="90" x="54.095550537109375" class="er attributeBoxEven"/><text style="dominant-baseline: middle; font-size: 10.2px;" transform="translate(59.095550537109375,101)" y="0" x="0" id="text-entity-Project-7aff2950-399a-4528-8461-5517d71f59ad-attr-4-name" class="er entityLabel">updtedAt</text><rect height="22" width="22.68768310546875" y="90" x="110.3387451171875" class="er attributeBoxEven"/><text style="dominant-baseline: middle; font-size: 10.2px;" transform="translate(115.3387451171875,101)" y="0" x="0" id="text-entity-Project-7aff2950-399a-4528-8461-5517d71f59ad-attr-4-key" class="er entityLabel"/></g><g transform="translate(284.77181243896484,20 )" id="entity-ProjectItem-07ed5709-f58e-423f-b076-29a9c9264b02"><rect height="90" width="114.75825500488281" y="0" x="0" class="er entityBox"/><text style="dominant-baseline: middle; text-anchor: middle; font-size: 12px;" transform="translate(57.379127502441406,12)" y="0" x="0" id="text-entity-ProjectItem-07ed5709-f58e-423f-b076-29a9c9264b02" class="er entityLabel">ProjectItem</text><rect height="22" width="46.625" y="24" x="0" class="er attributeBoxOdd"/><text style="dominant-baseline: middle; font-size: 10.2px;" transform="translate(5,35)" y="0" x="0" id="text-entity-ProjectItem-07ed5709-f58e-423f-b076-29a9c9264b02-attr-1-type" class="er entityLabel">String</text><rect height="22" width="45.44557189941406" y="24" x="46.625" class="er attributeBoxOdd"/><text style="dominant-baseline: middle; font-size: 10.2px;" transform="translate(51.625,35)" y="0" x="0" id="text-entity-ProjectItem-07ed5709-f58e-423f-b076-29a9c9264b02-attr-1-name" class="er entityLabel">id</text><rect height="22" width="22.68768310546875" y="24" x="92.07057189941406" class="er attributeBoxOdd"/><text style="dominant-baseline: middle; font-size: 10.2px;" transform="translate(97.07057189941406,35)" y="0" x="0" id="text-entity-ProjectItem-07ed5709-f58e-423f-b076-29a9c9264b02-attr-1-key" class="er entityLabel">PK</text><rect height="22" width="46.625" y="46" x="0" class="er attributeBoxEven"/><text style="dominant-baseline: middle; font-size: 10.2px;" transform="translate(5,57)" y="0" x="0" id="text-entity-ProjectItem-07ed5709-f58e-423f-b076-29a9c9264b02-attr-2-type" class="er entityLabel">Decimal</text><rect height="22" width="45.44557189941406" y="46" x="46.625" class="er attributeBoxEven"/><text style="dominant-baseline: middle; font-size: 10.2px;" transform="translate(51.625,57)" y="0" x="0" id="text-entity-ProjectItem-07ed5709-f58e-423f-b076-29a9c9264b02-attr-2-name" class="er entityLabel">power</text><rect height="22" width="22.68768310546875" y="46" x="92.07057189941406" class="er attributeBoxEven"/><text style="dominant-baseline: middle; font-size: 10.2px;" transform="translate(97.07057189941406,57)" y="0" x="0" id="text-entity-ProjectItem-07ed5709-f58e-423f-b076-29a9c9264b02-attr-2-key" class="er entityLabel"/><rect height="22" width="46.625" y="68" x="0" class="er attributeBoxOdd"/><text style="dominant-baseline: middle; font-size: 10.2px;" transform="translate(5,79)" y="0" x="0" id="text-entity-ProjectItem-07ed5709-f58e-423f-b076-29a9c9264b02-attr-3-type" class="er entityLabel">Int</text><rect height="22" width="45.44557189941406" y="68" x="46.625" class="er attributeBoxOdd"/><text style="dominant-baseline: middle; font-size: 10.2px;" transform="translate(51.625,79)" y="0" x="0" id="text-entity-ProjectItem-07ed5709-f58e-423f-b076-29a9c9264b02-attr-3-name" class="er entityLabel">amount</text><rect height="22" width="22.68768310546875" y="68" x="92.07057189941406" class="er attributeBoxOdd"/><text style="dominant-baseline: middle; font-size: 10.2px;" transform="translate(97.07057189941406,79)" y="0" x="0" id="text-entity-ProjectItem-07ed5709-f58e-423f-b076-29a9c9264b02-attr-3-key" class="er entityLabel"/></g><g transform="translate(508.6641540527344,243 )" id="entity-Room-d5385f47-7f6c-4b1c-aa08-78f120a586d7"><rect height="68" width="100" y="0" x="0" class="er entityBox"/><text style="dominant-baseline: middle; text-anchor: middle; font-size: 12px;" transform="translate(50,12)" y="0" x="0" id="text-entity-Room-d5385f47-7f6c-4b1c-aa08-78f120a586d7" class="er entityLabel">Room</text><rect height="22" width="38.90184020996094" y="24" x="0" class="er attributeBoxOdd"/><text style="dominant-baseline: middle; font-size: 10.2px;" transform="translate(5,35)" y="0" x="0" id="text-entity-Room-d5385f47-7f6c-4b1c-aa08-78f120a586d7-attr-1-type" class="er entityLabel">String</text><rect height="22" width="36.904693603515625" y="24" x="38.90184020996094" class="er attributeBoxOdd"/><text style="dominant-baseline: middle; font-size: 10.2px;" transform="translate(43.90184020996094,35)" y="0" x="0" id="text-entity-Room-d5385f47-7f6c-4b1c-aa08-78f120a586d7-attr-1-name" class="er entityLabel">id</text><rect height="22" width="24.193466186523438" y="24" x="75.80653381347656" class="er attributeBoxOdd"/><text style="dominant-baseline: middle; font-size: 10.2px;" transform="translate(80.80653381347656,35)" y="0" x="0" id="text-entity-Room-d5385f47-7f6c-4b1c-aa08-78f120a586d7-attr-1-key" class="er entityLabel">PK</text><rect height="22" width="38.90184020996094" y="46" x="0" class="er attributeBoxEven"/><text style="dominant-baseline: middle; font-size: 10.2px;" transform="translate(5,57)" y="0" x="0" id="text-entity-Room-d5385f47-7f6c-4b1c-aa08-78f120a586d7-attr-2-type" class="er entityLabel">String</text><rect height="22" width="36.904693603515625" y="46" x="38.90184020996094" class="er attributeBoxEven"/><text style="dominant-baseline: middle; font-size: 10.2px;" transform="translate(43.90184020996094,57)" y="0" x="0" id="text-entity-Room-d5385f47-7f6c-4b1c-aa08-78f120a586d7-attr-2-name" class="er entityLabel">name</text><rect height="22" width="24.193466186523438" y="46" x="75.80653381347656" class="er attributeBoxEven"/><text style="dominant-baseline: middle; font-size: 10.2px;" transform="translate(80.80653381347656,57)" y="0" x="0" id="text-entity-Room-d5385f47-7f6c-4b1c-aa08-78f120a586d7-attr-2-key" class="er entityLabel"/></g><rect height="14" width="24.361328125" y="398" x="85.63819885253906" class="er relationshipLabelBox"/><text style="text-anchor: middle; dominant-baseline: middle; font-size: 12px;" y="405" x="97.81886291503906" id="rel1" class="er relationshipLabel">type</text><rect height="14" width="34.470703125" y="381.5" x="324.91558837890625" class="er relationshipLabelBox"/><text style="text-anchor: middle; dominant-baseline: middle; font-size: 12px;" y="388.5" x="342.15093994140625" id="rel2" class="er relationshipLabel">owner</text><rect height="14" width="27.54296875" y="135.9496307373047" x="493.2502746582031" class="er relationshipLabelBox"/><text style="text-anchor: middle; dominant-baseline: middle; font-size: 12px;" y="142.9496307373047" x="507.0217590332031" id="rel3" class="er relationshipLabel">room</text><rect height="14" width="57.95703125" y="124.87876892089844" x="146.17193603515625" class="er relationshipLabelBox"/><text style="text-anchor: middle; dominant-baseline: middle; font-size: 12px;" y="131.87876892089844" x="175.15045166015625" id="rel4" class="er relationshipLabel">equipment</text><rect height="14" width="39.67578125" y="158.5" x="322.31304931640625" class="er relationshipLabelBox"/><text style="text-anchor: middle; dominant-baseline: middle; font-size: 12px;" y="165.5" x="342.15093994140625" id="rel5" class="er relationshipLabel">project</text></svg>