<svg aria-roledescription="er" viewBox="0 0 628.6641845703125 620" style="max-width: 628.664px; background-color: white;" xmlns:xlink="http://www.w3.org/1999/xlink" xmlns="http://www.w3.org/2000/svg" width="100%" id="mermaid-0"><style>#mermaid-0{font-family:"trebuchet ms",verdana,arial,sans-serif;font-size:16px;fill:#000000;}#mermaid-0 .error-icon{fill:#552222;}#mermaid-0 .error-text{fill:#552222;stroke:#552222;}#mermaid-0 .edge-thickness-normal{stroke-width:2px;}#mermaid-0 .edge-thickness-thick{stroke-width:3.5px;}#mermaid-0 .edge-pattern-solid{stroke-dasharray:0;}#mermaid-0 .edge-pattern-dashed{stroke-dasharray:3;}#mermaid-0 .edge-pattern-dotted{stroke-dasharray:2;}#mermaid-0 .marker{fill:#000000;stroke:#000000;}#mermaid-0 .marker.cross{stroke:#000000;}#mermaid-0 svg{font-family:"trebuchet ms",verdana,arial,sans-serif;font-size:16px;}#mermaid-0 .entityBox{fill:#cde498;stroke:#13540c;}#mermaid-0 .attributeBoxOdd{fill:#ffffff;stroke:#13540c;}#mermaid-0 .attributeBoxEven{fill:#f2f2f2;stroke:#13540c;}#mermaid-0 .relationshipLabelBox{fill:hsl(78.1578947368, 58.4615384615%, 84.5098039216%);opacity:0.7;background-color:hsl(78.1578947368, 58.4615384615%, 84.5098039216%);}#mermaid-0 .relationshipLabelBox rect{opacity:0.5;}#mermaid-0 .relationshipLine{stroke:#000000;}#mermaid-0 .entityTitleText{text-anchor:middle;font-size:18px;fill:#000000;}#mermaid-0 :root{--mermaid-font-family:"trebuchet ms",verdana,arial,sans-serif;}</style><g/><defs><marker orient="auto" markerHeight="18" markerWidth="18" refY="9" refX="0" id="ONLY_ONE_START"><path d="M9,0 L9,18 M15,0 L15,18" fill="none" stroke="gray"/></marker></defs><defs><marker orient="auto" markerHeight="18" markerWidth="18" refY="9" refX="18" id="ONLY_ONE_END"><path d="M3,0 L3,18 M9,0 L9,18" fill="none" stroke="gray"/></marker></defs><defs><marker orient="auto" markerHeight="18" markerWidth="30" refY="9" refX="0" id="ZERO_OR_ONE_START"><circle r="6" cy="9" cx="21" fill="white" stroke="gray"/><path d="M9,0 L9,18" fill="none" stroke="gray"/></marker></defs><defs><marker orient="auto" markerHeight="18" markerWidth="30" refY="9" refX="30" id="ZERO_OR_ONE_END"><circle r="6" cy="9" cx="9" fill="white" stroke="gray"/><path d="M21,0 L21,18" fill="none" stroke="gray"/></marker></defs><defs><marker orient="auto" markerHeight="36" markerWidth="45" refY="18" refX="18" id="ONE_OR_MORE_START"><path d="M0,18 Q 18,0 36,18 Q 18,36 0,18 M42,9 L42,27" fill="none" stroke="gray"/></marker></defs><defs><marker orient="auto" markerHeight="36" markerWidth="45" refY="18" refX="27" id="ONE_OR_MORE_END"><path d="M3,9 L3,27 M9,18 Q27,0 45,18 Q27,36 9,18" fill="none" stroke="gray"/></marker></defs><defs><marker orient="auto" markerHeight="36" markerWidth="57" refY="18" refX="18" id="ZERO_OR_MORE_START"><circle r="6" cy="18" cx="48" fill="white" stroke="gray"/><path d="M0,18 Q18,0 36,18 Q18,36 0,18" fill="none" stroke="gray"/></marker></defs><defs><marker orient="auto" markerHeight="36" markerWidth="57" refY="18" refX="39" id="ZERO_OR_MORE_END"><circle r="6" cy="18" cx="9" fill="white" stroke="gray"/><path d="M21,18 Q39,0 57,18 Q39,36 21,18" fill="none" stroke="gray"/></marker></defs><path style="stroke: gray; fill: none;" marker-start="url(#ZERO_OR_MORE_START)" marker-end="url(#ONLY_ONE_END)" d="M97.81886291503906,388L97.81886291503906,396.3333333333333C97.81886291503906,404.6666666666667,97.81886291503906,421.3333333333333,97.81886291503906,441.6666666666667C97.81886291503906,462,97.81886291503906,486,97.81886291503906,498L97.81886291503906,510" class="er relationshipLine"/><path style="stroke: gray; fill: none;" marker-start="url(#ZERO_OR_MORE_START)" marker-end="url(#ONLY_ONE_END)" d="M342.15093994140625,377L342.15093994140625,387.1666666666667C342.15093994140625,397.3333333333333,342.15093994140625,417.6666666666667,342.15093994140625,436.1666666666667C342.15093994140625,454.6666666666667,342.15093994140625,471.3333333333333,342.15093994140625,479.6666666666667L342.15093994140625,488" class="er relationshipLine"/><path style="stroke: gray; fill: none;" marker-start="url(#ZERO_OR_MORE_START)" marker-end="url(#ZERO_OR_ONE_END)" d="M439.0289840698242,139.35122119242448L458.9681790669759,150.1260176603537C478.9073740641276,160.90081412828297,518.785764058431,182.45040706414147,538.7249590555826,207.05853686540408C558.6641540527344,231.66666666666666,558.6641540527344,259.3333333333333,558.6641540527344,273.1666666666667L558.6641540527344,287" class="er relationshipLine"/><path style="stroke: gray; fill: none;" marker-start="url(#ZERO_OR_MORE_START)" marker-end="url(#ONLY_ONE_END)" d="M245.27289581298828,133.39067985249318L220.69722366333008,145.15889987707763C196.12155151367188,156.9271199016621,146.97020721435547,180.46355995083104,122.39453506469727,200.56511330874886C97.81886291503906,220.66666666666666,97.81886291503906,237.33333333333334,97.81886291503906,245.66666666666666L97.81886291503906,254" class="er relationshipLine"/><path style="stroke: gray; fill: none;" marker-start="url(#ZERO_OR_MORE_START)" marker-end="url(#ONLY_ONE_END)" d="M342.15093994140625,154L342.15093994140625,162.33333333333334C342.15093994140625,170.66666666666666,342.15093994140625,187.33333333333334,342.15093994140625,205.83333333333334C342.15093994140625,224.33333333333334,342.15093994140625,244.66666666666666,342.15093994140625,254.83333333333334L342.15093994140625,265" class="er relationshipLine"/><g transform="translate(20,254 )" id="entity-Equipment-39d8719c-a666-4297-bdba-5cf8aa89cd6e"><rect height="134" width="155.63772583007812" y="0" x="0" class="er entityBox"/><text style="dominant-baseline: middle; text-anchor: middle; font-size: 12px;" transform="translate(77.81886291503906,12)" y="0" x="0" id="text-entity-Equipment-39d8719c-a666-4297-bdba-5cf8aa89cd6e" class="er entityLabel">Equipment</text><rect height="22" width="46.649749755859375" y="24" x="0" class="er attributeBoxOdd"/><text style="dominant-baseline: middle; font-size: 10.2px;" transform="translate(5,35)" y="0" x="0" id="text-entity-Equipment-39d8719c-a666-4297-bdba-5cf8aa89cd6e-attr-1-type" class="er entityLabel">String</text><rect height="22" width="86.30029296875" y="24" x="46.649749755859375" class="er attributeBoxOdd"/><text style="dominant-baseline: middle; font-size: 10.2px;" transform="translate(51.649749755859375,35)" y="0" x="0" id="text-entity-Equipment-39d8719c-a666-4297-bdba-5cf8aa89cd6e-attr-1-name" class="er entityLabel">id</text><rect height="22" width="22.68768310546875" y="24" x="132.95004272460938" class="er attributeBoxOdd"/><text style="dominant-baseline: middle; font-size: 10.2px;" transform="translate(137.95004272460938,35)" y="0" x="0" id="text-entity-Equipment-39d8719c-a666-4297-bdba-5cf8aa89cd6e-attr-1-key" class="er entityLabel">PK</text><rect height="22" width="46.649749755859375" y="46" x="0" class="er attributeBoxEven"/><text style="dominant-baseline: middle; font-size: 10.2px;" transform="translate(5,57)" y="0" x="0" id="text-entity-Equipment-39d8719c-a666-4297-bdba-5cf8aa89cd6e-attr-2-type" class="er entityLabel">String</text><rect height="22" width="86.30029296875" y="46" x="46.649749755859375" class="er attributeBoxEven"/><text style="dominant-baseline: middle; font-size: 10.2px;" transform="translate(51.649749755859375,57)" y="0" x="0" id="text-entity-Equipment-39d8719c-a666-4297-bdba-5cf8aa89cd6e-attr-2-name" class="er entityLabel">name</text><rect height="22" width="22.68768310546875" y="46" x="132.95004272460938" class="er attributeBoxEven"/><text style="dominant-baseline: middle; font-size: 10.2px;" transform="translate(137.95004272460938,57)" y="0" x="0" id="text-entity-Equipment-39d8719c-a666-4297-bdba-5cf8aa89cd6e-attr-2-key" class="er entityLabel"/><rect height="22" width="46.649749755859375" y="68" x="0" class="er attributeBoxOdd"/><text style="dominant-baseline: middle; font-size: 10.2px;" transform="translate(5,79)" y="0" x="0" id="text-entity-Equipment-39d8719c-a666-4297-bdba-5cf8aa89cd6e-attr-3-type" class="er entityLabel">Decimal</text><rect height="22" width="86.30029296875" y="68" x="46.649749755859375" class="er attributeBoxOdd"/><text style="dominant-baseline: middle; font-size: 10.2px;" transform="translate(51.649749755859375,79)" y="0" x="0" id="text-entity-Equipment-39d8719c-a666-4297-bdba-5cf8aa89cd6e-attr-3-name" class="er entityLabel">power</text><rect height="22" width="22.68768310546875" y="68" x="132.95004272460938" class="er attributeBoxOdd"/><text style="dominant-baseline: middle; font-size: 10.2px;" transform="translate(137.95004272460938,79)" y="0" x="0" id="text-entity-Equipment-39d8719c-a666-4297-bdba-5cf8aa89cd6e-attr-3-key" class="er entityLabel"/><rect height="22" width="46.649749755859375" y="90" x="0" class="er attributeBoxEven"/><text style="dominant-baseline: middle; font-size: 10.2px;" transform="translate(5,101)" y="0" x="0" id="text-entity-Equipment-39d8719c-a666-4297-bdba-5cf8aa89cd6e-attr-4-type" class="er entityLabel">Boolean</text><rect height="22" width="86.30029296875" y="90" x="46.649749755859375" class="er attributeBoxEven"/><text style="dominant-baseline: middle; font-size: 10.2px;" transform="translate(51.649749755859375,101)" y="0" x="0" id="text-entity-Equipment-39d8719c-a666-4297-bdba-5cf8aa89cd6e-attr-4-name" class="er entityLabel">isResistive</text><rect height="22" width="22.68768310546875" y="90" x="132.95004272460938" class="er attributeBoxEven"/><text style="dominant-baseline: middle; font-size: 10.2px;" transform="translate(137.95004272460938,101)" y="0" x="0" id="text-entity-Equipment-39d8719c-a666-4297-bdba-5cf8aa89cd6e-attr-4-key" class="er entityLabel"/><rect height="22" width="46.649749755859375" y="112" x="0" class="er attributeBoxOdd"/><text style="dominant-baseline: middle; font-size: 10.2px;" transform="translate(5,123)" y="0" x="0" id="text-entity-Equipment-39d8719c-a666-4297-bdba-5cf8aa89cd6e-attr-5-type" class="er entityLabel">Int</text><rect height="22" width="86.30029296875" y="112" x="46.649749755859375" class="er attributeBoxOdd"/><text style="dominant-baseline: middle; font-size: 10.2px;" transform="translate(51.649749755859375,123)" y="0" x="0" id="text-entity-Equipment-39d8719c-a666-4297-bdba-5cf8aa89cd6e-attr-5-name" class="er entityLabel">numberOfPhases</text><rect height="22" width="22.68768310546875" y="112" x="132.95004272460938" class="er attributeBoxOdd"/><text style="dominant-baseline: middle; font-size: 10.2px;" transform="translate(137.95004272460938,123)" y="0" x="0" id="text-entity-Equipment-39d8719c-a666-4297-bdba-5cf8aa89cd6e-attr-5-key" class="er entityLabel"/></g><g transform="translate(41.42628479003906,510 )" id="entity-EquipmentType-463c7a37-f1c3-441d-9d10-1568108f54a5"><rect height="68" width="112.78515625" y="0" x="0" class="er entityBox"/><text style="dominant-baseline: middle; text-anchor: middle; font-size: 12px;" transform="translate(56.392578125,12)" y="0" x="0" id="text-entity-EquipmentType-463c7a37-f1c3-441d-9d10-1568108f54a5" class="er entityLabel">EquipmentType</text><rect height="22" width="43.16355895996094" y="24" x="0" class="er attributeBoxOdd"/><text style="dominant-baseline: middle; font-size: 10.2px;" transform="translate(5,35)" y="0" x="0" id="text-entity-EquipmentType-463c7a37-f1c3-441d-9d10-1568108f54a5-attr-1-type" class="er entityLabel">String</text><rect height="22" width="41.166412353515625" y="24" x="43.16355895996094" class="er attributeBoxOdd"/><text style="dominant-baseline: middle; font-size: 10.2px;" transform="translate(48.16355895996094,35)" y="0" x="0" id="text-entity-EquipmentType-463c7a37-f1c3-441d-9d10-1568108f54a5-attr-1-name" class="er entityLabel">id</text><rect height="22" width="28.455184936523438" y="24" x="84.32997131347656" class="er attributeBoxOdd"/><text style="dominant-baseline: middle; font-size: 10.2px;" transform="translate(89.32997131347656,35)" y="0" x="0" id="text-entity-EquipmentType-463c7a37-f1c3-441d-9d10-1568108f54a5-attr-1-key" class="er entityLabel">PK</text><rect height="22" width="43.16355895996094" y="46" x="0" class="er attributeBoxEven"/><text style="dominant-baseline: middle; font-size: 10.2px;" transform="translate(5,57)" y="0" x="0" id="text-entity-EquipmentType-463c7a37-f1c3-441d-9d10-1568108f54a5-attr-2-type" class="er entityLabel">String</text><rect height="22" width="41.166412353515625" y="46" x="43.16355895996094" class="er attributeBoxEven"/><text style="dominant-baseline: middle; font-size: 10.2px;" transform="translate(48.16355895996094,57)" y="0" x="0" id="text-entity-EquipmentType-463c7a37-f1c3-441d-9d10-1568108f54a5-attr-2-name" class="er entityLabel">name</text><rect height="22" width="28.455184936523438" y="46" x="84.32997131347656" class="er attributeBoxEven"/><text style="dominant-baseline: middle; font-size: 10.2px;" transform="translate(89.32997131347656,57)" y="0" x="0" id="text-entity-EquipmentType-463c7a37-f1c3-441d-9d10-1568108f54a5-attr-2-key" class="er entityLabel"/></g><g transform="translate(275.6377258300781,488 )" id="entity-User-652f1951-5395-4014-9011-a01b914171e5"><rect height="112" width="133.02642822265625" y="0" x="0" class="er entityBox"/><text style="dominant-baseline: middle; text-anchor: middle; font-size: 12px;" transform="translate(66.51321411132812,12)" y="0" x="0" id="text-entity-User-652f1951-5395-4014-9011-a01b914171e5" class="er entityLabel">User</text><rect height="22" width="54.095550537109375" y="24" x="0" class="er attributeBoxOdd"/><text style="dominant-baseline: middle; font-size: 10.2px;" transform="translate(5,35)" y="0" x="0" id="text-entity-User-652f1951-5395-4014-9011-a01b914171e5-attr-1-type" class="er entityLabel">String</text><rect height="22" width="56.243194580078125" y="24" x="54.095550537109375" class="er attributeBoxOdd"/><text style="dominant-baseline: middle; font-size: 10.2px;" transform="translate(59.095550537109375,35)" y="0" x="0" id="text-entity-User-652f1951-5395-4014-9011-a01b914171e5-attr-1-name" class="er entityLabel">id</text><rect height="22" width="22.68768310546875" y="24" x="110.3387451171875" class="er attributeBoxOdd"/><text style="dominant-baseline: middle; font-size: 10.2px;" transform="translate(115.3387451171875,35)" y="0" x="0" id="text-entity-User-652f1951-5395-4014-9011-a01b914171e5-attr-1-key" class="er entityLabel">PK</text><rect height="22" width="54.095550537109375" y="46" x="0" class="er attributeBoxEven"/><text style="dominant-baseline: middle; font-size: 10.2px;" transform="translate(5,57)" y="0" x="0" id="text-entity-User-652f1951-5395-4014-9011-a01b914171e5-attr-2-type" class="er entityLabel">String</text><rect height="22" width="56.243194580078125" y="46" x="54.095550537109375" class="er attributeBoxEven"/><text style="dominant-baseline: middle; font-size: 10.2px;" transform="translate(59.095550537109375,57)" y="0" x="0" id="text-entity-User-652f1951-5395-4014-9011-a01b914171e5-attr-2-name" class="er entityLabel">name</text><rect height="22" width="22.68768310546875" y="46" x="110.3387451171875" class="er attributeBoxEven"/><text style="dominant-baseline: middle; font-size: 10.2px;" transform="translate(115.3387451171875,57)" y="0" x="0" id="text-entity-User-652f1951-5395-4014-9011-a01b914171e5-attr-2-key" class="er entityLabel"/><rect height="22" width="54.095550537109375" y="68" x="0" class="er attributeBoxOdd"/><text style="dominant-baseline: middle; font-size: 10.2px;" transform="translate(5,79)" y="0" x="0" id="text-entity-User-652f1951-5395-4014-9011-a01b914171e5-attr-3-type" class="er entityLabel">String</text><rect height="22" width="56.243194580078125" y="68" x="54.095550537109375" class="er attributeBoxOdd"/><text style="dominant-baseline: middle; font-size: 10.2px;" transform="translate(59.095550537109375,79)" y="0" x="0" id="text-entity-User-652f1951-5395-4014-9011-a01b914171e5-attr-3-name" class="er entityLabel">email</text><rect height="22" width="22.68768310546875" y="68" x="110.3387451171875" class="er attributeBoxOdd"/><text style="dominant-baseline: middle; font-size: 10.2px;" transform="translate(115.3387451171875,79)" y="0" x="0" id="text-entity-User-652f1951-5395-4014-9011-a01b914171e5-attr-3-key" class="er entityLabel"/><rect height="22" width="54.095550537109375" y="90" x="0" class="er attributeBoxEven"/><text style="dominant-baseline: middle; font-size: 10.2px;" transform="translate(5,101)" y="0" x="0" id="text-entity-User-652f1951-5395-4014-9011-a01b914171e5-attr-4-type" class="er entityLabel">DateTime</text><rect height="22" width="56.243194580078125" y="90" x="54.095550537109375" class="er attributeBoxEven"/><text style="dominant-baseline: middle; font-size: 10.2px;" transform="translate(59.095550537109375,101)" y="0" x="0" id="text-entity-User-652f1951-5395-4014-9011-a01b914171e5-attr-4-name" class="er entityLabel">createdAt</text><rect height="22" width="22.68768310546875" y="90" x="110.3387451171875" class="er attributeBoxEven"/><text style="dominant-baseline: middle; font-size: 10.2px;" transform="translate(115.3387451171875,101)" y="0" x="0" id="text-entity-User-652f1951-5395-4014-9011-a01b914171e5-attr-4-key" class="er entityLabel"/></g><g transform="translate(275.6377258300781,265 )" id="entity-Project-ee6220a6-668e-42c1-bf6e-b5ca130e77b1"><rect height="112" width="133.02642822265625" y="0" x="0" class="er entityBox"/><text style="dominant-baseline: middle; text-anchor: middle; font-size: 12px;" transform="translate(66.51321411132812,12)" y="0" x="0" id="text-entity-Project-ee6220a6-668e-42c1-bf6e-b5ca130e77b1" class="er entityLabel">Project</text><rect height="22" width="54.095550537109375" y="24" x="0" class="er attributeBoxOdd"/><text style="dominant-baseline: middle; font-size: 10.2px;" transform="translate(5,35)" y="0" x="0" id="text-entity-Project-ee6220a6-668e-42c1-bf6e-b5ca130e77b1-attr-1-type" class="er entityLabel">String</text><rect height="22" width="56.243194580078125" y="24" x="54.095550537109375" class="er attributeBoxOdd"/><text style="dominant-baseline: middle; font-size: 10.2px;" transform="translate(59.095550537109375,35)" y="0" x="0" id="text-entity-Project-ee6220a6-668e-42c1-bf6e-b5ca130e77b1-attr-1-name" class="er entityLabel">id</text><rect height="22" width="22.68768310546875" y="24" x="110.3387451171875" class="er attributeBoxOdd"/><text style="dominant-baseline: middle; font-size: 10.2px;" transform="translate(115.3387451171875,35)" y="0" x="0" id="text-entity-Project-ee6220a6-668e-42c1-bf6e-b5ca130e77b1-attr-1-key" class="er entityLabel">PK</text><rect height="22" width="54.095550537109375" y="46" x="0" class="er attributeBoxEven"/><text style="dominant-baseline: middle; font-size: 10.2px;" transform="translate(5,57)" y="0" x="0" id="text-entity-Project-ee6220a6-668e-42c1-bf6e-b5ca130e77b1-attr-2-type" class="er entityLabel">String</text><rect height="22" width="56.243194580078125" y="46" x="54.095550537109375" class="er attributeBoxEven"/><text style="dominant-baseline: middle; font-size: 10.2px;" transform="translate(59.095550537109375,57)" y="0" x="0" id="text-entity-Project-ee6220a6-668e-42c1-bf6e-b5ca130e77b1-attr-2-name" class="er entityLabel">name</text><rect height="22" width="22.68768310546875" y="46" x="110.3387451171875" class="er attributeBoxEven"/><text style="dominant-baseline: middle; font-size: 10.2px;" transform="translate(115.3387451171875,57)" y="0" x="0" id="text-entity-Project-ee6220a6-668e-42c1-bf6e-b5ca130e77b1-attr-2-key" class="er entityLabel"/><rect height="22" width="54.095550537109375" y="68" x="0" class="er attributeBoxOdd"/><text style="dominant-baseline: middle; font-size: 10.2px;" transform="translate(5,79)" y="0" x="0" id="text-entity-Project-ee6220a6-668e-42c1-bf6e-b5ca130e77b1-attr-3-type" class="er entityLabel">DateTime</text><rect height="22" width="56.243194580078125" y="68" x="54.095550537109375" class="er attributeBoxOdd"/><text style="dominant-baseline: middle; font-size: 10.2px;" transform="translate(59.095550537109375,79)" y="0" x="0" id="text-entity-Project-ee6220a6-668e-42c1-bf6e-b5ca130e77b1-attr-3-name" class="er entityLabel">createdAt</text><rect height="22" width="22.68768310546875" y="68" x="110.3387451171875" class="er attributeBoxOdd"/><text style="dominant-baseline: middle; font-size: 10.2px;" transform="translate(115.3387451171875,79)" y="0" x="0" id="text-entity-Project-ee6220a6-668e-42c1-bf6e-b5ca130e77b1-attr-3-key" class="er entityLabel"/><rect height="22" width="54.095550537109375" y="90" x="0" class="er attributeBoxEven"/><text style="dominant-baseline: middle; font-size: 10.2px;" transform="translate(5,101)" y="0" x="0" id="text-entity-Project-ee6220a6-668e-42c1-bf6e-b5ca130e77b1-attr-4-type" class="er entityLabel">DateTime</text><rect height="22" width="56.243194580078125" y="90" x="54.095550537109375" class="er attributeBoxEven"/><text style="dominant-baseline: middle; font-size: 10.2px;" transform="translate(59.095550537109375,101)" y="0" x="0" id="text-entity-Project-ee6220a6-668e-42c1-bf6e-b5ca130e77b1-attr-4-name" class="er entityLabel">updtedAt</text><rect height="22" width="22.68768310546875" y="90" x="110.3387451171875" class="er attributeBoxEven"/><text style="dominant-baseline: middle; font-size: 10.2px;" transform="translate(115.3387451171875,101)" y="0" x="0" id="text-entity-Project-ee6220a6-668e-42c1-bf6e-b5ca130e77b1-attr-4-key" class="er entityLabel"/></g><g transform="translate(245.27289581298828,20 )" id="entity-ProjectItem-bebfaf21-25ce-426d-adf1-84bacfa0e69b"><rect height="134" width="193.75608825683594" y="0" x="0" class="er entityBox"/><text style="dominant-baseline: middle; text-anchor: middle; font-size: 12px;" transform="translate(96.87804412841797,12)" y="0" x="0" id="text-entity-ProjectItem-bebfaf21-25ce-426d-adf1-84bacfa0e69b" class="er entityLabel">ProjectItem</text><rect height="22" width="46.625" y="24" x="0" class="er attributeBoxOdd"/><text style="dominant-baseline: middle; font-size: 10.2px;" transform="translate(5,35)" y="0" x="0" id="text-entity-ProjectItem-bebfaf21-25ce-426d-adf1-84bacfa0e69b-attr-1-type" class="er entityLabel">String</text><rect height="22" width="77.23086547851562" y="24" x="46.625" class="er attributeBoxOdd"/><text style="dominant-baseline: middle; font-size: 10.2px;" transform="translate(51.625,35)" y="0" x="0" id="text-entity-ProjectItem-bebfaf21-25ce-426d-adf1-84bacfa0e69b-attr-1-name" class="er entityLabel">id</text><rect height="22" width="22.68768310546875" y="24" x="123.85586547851562" class="er attributeBoxOdd"/><text style="dominant-baseline: middle; font-size: 10.2px;" transform="translate(128.85586547851562,35)" y="0" x="0" id="text-entity-ProjectItem-bebfaf21-25ce-426d-adf1-84bacfa0e69b-attr-1-key" class="er entityLabel">PK</text><rect height="22" width="47.21253967285156" y="24" x="146.54354858398438" class="er attributeBoxOdd"/><text style="dominant-baseline: middle; font-size: 10.2px;" transform="translate(151.54354858398438,35)" y="0" x="0" id="text-entity-ProjectItem-bebfaf21-25ce-426d-adf1-84bacfa0e69b-attr-1-comment" class="er entityLabel"/><rect height="22" width="46.625" y="46" x="0" class="er attributeBoxEven"/><text style="dominant-baseline: middle; font-size: 10.2px;" transform="translate(5,57)" y="0" x="0" id="text-entity-ProjectItem-bebfaf21-25ce-426d-adf1-84bacfa0e69b-attr-2-type" class="er entityLabel">String</text><rect height="22" width="77.23086547851562" y="46" x="46.625" class="er attributeBoxEven"/><text style="dominant-baseline: middle; font-size: 10.2px;" transform="translate(51.625,57)" y="0" x="0" id="text-entity-ProjectItem-bebfaf21-25ce-426d-adf1-84bacfa0e69b-attr-2-name" class="er entityLabel">boardType</text><rect height="22" width="22.68768310546875" y="46" x="123.85586547851562" class="er attributeBoxEven"/><text style="dominant-baseline: middle; font-size: 10.2px;" transform="translate(128.85586547851562,57)" y="0" x="0" id="text-entity-ProjectItem-bebfaf21-25ce-426d-adf1-84bacfa0e69b-attr-2-key" class="er entityLabel"/><rect height="22" width="47.21253967285156" y="46" x="146.54354858398438" class="er attributeBoxEven"/><text style="dominant-baseline: middle; font-size: 10.2px;" transform="translate(151.54354858398438,57)" y="0" x="0" id="text-entity-ProjectItem-bebfaf21-25ce-426d-adf1-84bacfa0e69b-attr-2-comment" class="er entityLabel">nullable</text><rect height="22" width="46.625" y="68" x="0" class="er attributeBoxOdd"/><text style="dominant-baseline: middle; font-size: 10.2px;" transform="translate(5,79)" y="0" x="0" id="text-entity-ProjectItem-bebfaf21-25ce-426d-adf1-84bacfa0e69b-attr-3-type" class="er entityLabel">Decimal</text><rect height="22" width="77.23086547851562" y="68" x="46.625" class="er attributeBoxOdd"/><text style="dominant-baseline: middle; font-size: 10.2px;" transform="translate(51.625,79)" y="0" x="0" id="text-entity-ProjectItem-bebfaf21-25ce-426d-adf1-84bacfa0e69b-attr-3-name" class="er entityLabel">power</text><rect height="22" width="22.68768310546875" y="68" x="123.85586547851562" class="er attributeBoxOdd"/><text style="dominant-baseline: middle; font-size: 10.2px;" transform="translate(128.85586547851562,79)" y="0" x="0" id="text-entity-ProjectItem-bebfaf21-25ce-426d-adf1-84bacfa0e69b-attr-3-key" class="er entityLabel"/><rect height="22" width="47.21253967285156" y="68" x="146.54354858398438" class="er attributeBoxOdd"/><text style="dominant-baseline: middle; font-size: 10.2px;" transform="translate(151.54354858398438,79)" y="0" x="0" id="text-entity-ProjectItem-bebfaf21-25ce-426d-adf1-84bacfa0e69b-attr-3-comment" class="er entityLabel"/><rect height="22" width="46.625" y="90" x="0" class="er attributeBoxEven"/><text style="dominant-baseline: middle; font-size: 10.2px;" transform="translate(5,101)" y="0" x="0" id="text-entity-ProjectItem-bebfaf21-25ce-426d-adf1-84bacfa0e69b-attr-4-type" class="er entityLabel">Int</text><rect height="22" width="77.23086547851562" y="90" x="46.625" class="er attributeBoxEven"/><text style="dominant-baseline: middle; font-size: 10.2px;" transform="translate(51.625,101)" y="0" x="0" id="text-entity-ProjectItem-bebfaf21-25ce-426d-adf1-84bacfa0e69b-attr-4-name" class="er entityLabel">amount</text><rect height="22" width="22.68768310546875" y="90" x="123.85586547851562" class="er attributeBoxEven"/><text style="dominant-baseline: middle; font-size: 10.2px;" transform="translate(128.85586547851562,101)" y="0" x="0" id="text-entity-ProjectItem-bebfaf21-25ce-426d-adf1-84bacfa0e69b-attr-4-key" class="er entityLabel"/><rect height="22" width="47.21253967285156" y="90" x="146.54354858398438" class="er attributeBoxEven"/><text style="dominant-baseline: middle; font-size: 10.2px;" transform="translate(151.54354858398438,101)" y="0" x="0" id="text-entity-ProjectItem-bebfaf21-25ce-426d-adf1-84bacfa0e69b-attr-4-comment" class="er entityLabel"/><rect height="22" width="46.625" y="112" x="0" class="er attributeBoxOdd"/><text style="dominant-baseline: middle; font-size: 10.2px;" transform="translate(5,123)" y="0" x="0" id="text-entity-ProjectItem-bebfaf21-25ce-426d-adf1-84bacfa0e69b-attr-5-type" class="er entityLabel">Int</text><rect height="22" width="77.23086547851562" y="112" x="46.625" class="er attributeBoxOdd"/><text style="dominant-baseline: middle; font-size: 10.2px;" transform="translate(51.625,123)" y="0" x="0" id="text-entity-ProjectItem-bebfaf21-25ce-426d-adf1-84bacfa0e69b-attr-5-name" class="er entityLabel">phasesNumber</text><rect height="22" width="22.68768310546875" y="112" x="123.85586547851562" class="er attributeBoxOdd"/><text style="dominant-baseline: middle; font-size: 10.2px;" transform="translate(128.85586547851562,123)" y="0" x="0" id="text-entity-ProjectItem-bebfaf21-25ce-426d-adf1-84bacfa0e69b-attr-5-key" class="er entityLabel"/><rect height="22" width="47.21253967285156" y="112" x="146.54354858398438" class="er attributeBoxOdd"/><text style="dominant-baseline: middle; font-size: 10.2px;" transform="translate(151.54354858398438,123)" y="0" x="0" id="text-entity-ProjectItem-bebfaf21-25ce-426d-adf1-84bacfa0e69b-attr-5-comment" class="er entityLabel"/></g><g transform="translate(508.6641540527344,287 )" id="entity-Room-4d4ee72a-2290-45b2-98df-6f540b1efc8b"><rect height="68" width="100" y="0" x="0" class="er entityBox"/><text style="dominant-baseline: middle; text-anchor: middle; font-size: 12px;" transform="translate(50,12)" y="0" x="0" id="text-entity-Room-4d4ee72a-2290-45b2-98df-6f540b1efc8b" class="er entityLabel">Room</text><rect height="22" width="38.90184020996094" y="24" x="0" class="er attributeBoxOdd"/><text style="dominant-baseline: middle; font-size: 10.2px;" transform="translate(5,35)" y="0" x="0" id="text-entity-Room-4d4ee72a-2290-45b2-98df-6f540b1efc8b-attr-1-type" class="er entityLabel">String</text><rect height="22" width="36.904693603515625" y="24" x="38.90184020996094" class="er attributeBoxOdd"/><text style="dominant-baseline: middle; font-size: 10.2px;" transform="translate(43.90184020996094,35)" y="0" x="0" id="text-entity-Room-4d4ee72a-2290-45b2-98df-6f540b1efc8b-attr-1-name" class="er entityLabel">id</text><rect height="22" width="24.193466186523438" y="24" x="75.80653381347656" class="er attributeBoxOdd"/><text style="dominant-baseline: middle; font-size: 10.2px;" transform="translate(80.80653381347656,35)" y="0" x="0" id="text-entity-Room-4d4ee72a-2290-45b2-98df-6f540b1efc8b-attr-1-key" class="er entityLabel">PK</text><rect height="22" width="38.90184020996094" y="46" x="0" class="er attributeBoxEven"/><text style="dominant-baseline: middle; font-size: 10.2px;" transform="translate(5,57)" y="0" x="0" id="text-entity-Room-4d4ee72a-2290-45b2-98df-6f540b1efc8b-attr-2-type" class="er entityLabel">String</text><rect height="22" width="36.904693603515625" y="46" x="38.90184020996094" class="er attributeBoxEven"/><text style="dominant-baseline: middle; font-size: 10.2px;" transform="translate(43.90184020996094,57)" y="0" x="0" id="text-entity-Room-4d4ee72a-2290-45b2-98df-6f540b1efc8b-attr-2-name" class="er entityLabel">name</text><rect height="22" width="24.193466186523438" y="46" x="75.80653381347656" class="er attributeBoxEven"/><text style="dominant-baseline: middle; font-size: 10.2px;" transform="translate(80.80653381347656,57)" y="0" x="0" id="text-entity-Room-4d4ee72a-2290-45b2-98df-6f540b1efc8b-attr-2-key" class="er entityLabel"/></g><rect height="14" width="24.361328125" y="442" x="85.63819885253906" class="er relationshipLabelBox"/><text style="text-anchor: middle; dominant-baseline: middle; font-size: 12px;" y="449" x="97.81886291503906" id="rel1" class="er relationshipLabel">type</text><rect height="14" width="34.470703125" y="425.5" x="324.91558837890625" class="er relationshipLabelBox"/><text style="text-anchor: middle; dominant-baseline: middle; font-size: 12px;" y="432.5" x="342.15093994140625" id="rel2" class="er relationshipLabel">owner</text><rect height="14" width="27.54296875" y="186.8303680419922" x="512.1658935546875" class="er relationshipLabelBox"/><text style="text-anchor: middle; dominant-baseline: middle; font-size: 12px;" y="193.8303680419922" x="525.9373779296875" id="rel3" class="er relationshipLabel">room</text><rect height="14" width="57.95703125" y="171.85882568359375" x="126.126220703125" class="er relationshipLabelBox"/><text style="text-anchor: middle; dominant-baseline: middle; font-size: 12px;" y="178.85882568359375" x="155.104736328125" id="rel4" class="er relationshipLabel">equipment</text><rect height="14" width="39.67578125" y="202.5" x="322.31304931640625" class="er relationshipLabelBox"/><text style="text-anchor: middle; dominant-baseline: middle; font-size: 12px;" y="209.5" x="342.15093994140625" id="rel5" class="er relationshipLabel">project</text></svg>